<svg xmlns="http://www.w3.org/2000/svg" viewBox="0 0 451 143" width="451" height="143">
	<style>
		tspan { white-space:pre }
		.shp0 { fill: #ffffff;stroke: #3d3d3d;stroke-linecap:round;stroke-linejoin:round;stroke-width: 3.756;stroke-dasharray: 0,0,0,0 } 
		.shp1 { opacity: 0.302;fill: #00ffd6 } 
		.shp2 { opacity: 0.302;fill: #00937b } 
		.shp3 { opacity: 0.302;fill: #7882ff } 
		.shp4 { opacity: 0.302;fill: #ffffff } 
		.shp5 { opacity: 0.302;fill: #3d3d3d } 
		.shp6 { fill: none;stroke: #ff0076;stroke-linecap:round;stroke-linejoin:round;stroke-width: 2.504;stroke-dasharray: 0,5,0,0 } 
		.txt7 { font-size: 1px;fill: #ffffff;font-family: "' Arial MT'" } 
		.shp8 { fill: none;stroke: #00937b;stroke-linecap:round;stroke-width: 3.756 } 
		.shp9 { fill: #3d3d3d } 
		.shp10 { fill: none;stroke: #3d3d3d;stroke-linecap:round;stroke-linejoin:round;stroke-width: 3.756 } 
		.shp11 { fill: none;stroke: #7882ff;stroke-linecap:round;stroke-width: 3.756 } 
	</style>
	<g id="Layer">
		<g id="Layer">
			<g id="Layer">
				<g id="flatFold">
					<path id="Layer" fill-rule="evenodd" class="shp0" d="M62.43 59.97L34.22 76.32C32.86 77.11 33.03 78.48 34.6 79.39L90.27 111.66C91.83 112.57 94.2 112.67 95.56 111.88L123.77 95.53" />
					<path id="Layer" fill-rule="evenodd" class="shp0" d="M123.77 95.53L151.99 79.17C153.34 78.38 153.17 77.01 151.61 76.1L95.94 43.83C94.37 42.93 92 42.83 90.65 43.61L62.43 59.97" />
					<path id="Layer" fill-rule="evenodd" class="shp1" d="M99.53 49.36L44.64 81.19L66.66 93.95L121.56 62.13L99.53 49.36L99.53 49.36Z" />
					<path id="Layer" fill-rule="evenodd" class="shp2" d="M72.27 93.94C73.43 93.27 75.31 93.27 76.47 93.94C77.63 94.61 77.63 95.7 76.47 96.38C75.31 97.05 73.43 97.05 72.27 96.38C71.11 95.7 71.11 94.61 72.27 93.94Z" />
					<path id="Layer" fill-rule="evenodd" class="shp2" d="M93.41 83.26L80.06 91L81.55 91.86L94.89 84.12L93.41 83.26L93.41 83.26Z" />
					<path id="Layer" fill-rule="evenodd" class="shp2" d="M95.96 84.74L82.62 92.48L84.1 93.34L97.45 85.6L95.96 84.74L95.96 84.74Z" />
					<path id="Layer" fill-rule="evenodd" class="shp2" d="M99.34 86.7L86 94.44L87.48 95.3L100.83 87.56L99.34 86.7L99.34 86.7Z" />
					<path id="Layer" fill-rule="evenodd" class="shp2" d="M101.9 88.18L88.55 95.92L90.03 96.78L103.38 89.04L101.9 88.18L101.9 88.18Z" />
					<path id="Layer" fill-rule="evenodd" class="shp2" d="M71.4 73.34L81.42 67.53L83.85 68.93L85.95 65.43L93.83 70L87.79 71.22L90.22 72.63L80.2 78.44L71.4 73.34L71.4 73.34Z" />
					<path id="Layer" fill-rule="evenodd" class="shp3" d="M101.17 77.8C102.34 77.12 104.25 77.12 105.43 77.8C106.61 78.48 106.61 79.59 105.43 80.27C104.25 80.95 102.34 80.95 101.17 80.27C99.99 79.59 99.99 78.48 101.17 77.8Z" />
					<path id="Layer" fill-rule="evenodd" class="shp3" d="M106.53 80.91C107.7 80.23 109.61 80.23 110.79 80.91C111.97 81.59 111.97 82.7 110.79 83.38C109.61 84.06 107.7 84.06 106.53 83.38C105.35 82.7 105.35 81.59 106.53 80.91Z" />
					<path id="Layer" fill-rule="evenodd" class="shp3" d="M111.89 84.02C113.06 83.33 114.97 83.33 116.15 84.02C117.33 84.7 117.33 85.81 116.15 86.49C114.97 87.17 113.06 87.17 111.89 86.49C110.71 85.81 110.71 84.7 111.89 84.02Z" />
					<path id="Layer" fill-rule="evenodd" class="shp3" d="M123.33 63.16L102.77 75.08L126.7 88.95L147.26 77.03L123.33 63.16L123.33 63.16Z" />
					<path id="Layer" fill-rule="evenodd" class="shp4" d="M123.59 64.5L105.08 75.23L106.37 75.97L124.87 65.24L123.59 64.5L123.59 64.5Z" />
					<path id="Layer" fill-rule="evenodd" class="shp4" d="M121.02 68.97L107.65 76.72L108.94 77.46L122.3 69.71L121.02 68.97L121.02 68.97Z" />
					<path id="Layer" fill-rule="evenodd" class="shp4" d="M128.73 67.48L110.22 78.2L111.51 78.95L130.01 68.22L128.73 67.48L128.73 67.48Z" />
					<path id="Layer" fill-rule="evenodd" class="shp4" d="M131.46 75.02L118.1 82.77L119.38 83.52L132.75 75.77L131.46 75.02L131.46 75.02Z" />
					<path id="Layer" fill-rule="evenodd" class="shp4" d="M134.03 70.55L115.53 81.28L116.81 82.03L135.32 71.3L134.03 70.55L134.03 70.55Z" />
					<path id="Layer" fill-rule="evenodd" class="shp4" d="M136.5 77.94L123.13 85.69L124.41 86.43L137.78 78.68L136.5 77.94Z" />
					<path id="Layer" fill-rule="evenodd" class="shp4" d="M139.07 73.47L120.56 84.2L121.84 84.94L140.35 74.21L139.07 73.47L139.07 73.47Z" />
					<path id="Layer" fill-rule="evenodd" class="shp4" d="M126.16 71.95L112.79 79.69L114.08 80.44L127.44 72.69L126.16 71.95L126.16 71.95Z" />
					<path id="Layer" fill-rule="evenodd" class="shp5" d="M95.16 48.02C94.8 47.81 94.24 47.79 93.93 47.97L40.94 78.69C40.62 78.87 40.66 79.19 41.03 79.41L42.35 80.17C42.71 80.38 43.26 80.41 43.58 80.22L96.57 49.51C96.89 49.32 96.85 49 96.48 48.79L95.16 48.02Z" />
					<path id="Layer" fill-rule="evenodd" class="shp6" d="M115.41 90.68L68.75 63.63" />
					<g id="Layer">
						<text id="ttps:/" style="opacity: 0.302;transform: matrix(1.082,-0.627,1.249,0.724,43.808,79.045)" >
							<tspan x="0" y="0" class="txt7">ttps:/</tspan>
						</text>
					</g>
					<path id="Layer" fill-rule="evenodd" class="shp5" d="M90.38 46.66C90.85 46.39 91.61 46.39 92.07 46.66C92.54 46.93 92.54 47.37 92.07 47.64C91.61 47.91 90.85 47.91 90.38 47.64C89.92 47.37 89.92 46.93 90.38 46.66Z" />
				</g>
				<path id="Layer" fill-rule="evenodd" class="shp8" d="M22.03 60.54L19.97 68.25L27.65 70.32" />
				<path id="Layer" fill-rule="evenodd" class="shp8" d="M69.04 33.29L76.72 35.35L74.66 43.07" />
				<path id="Layer" fill-rule="evenodd" class="shp8" d="M19.97 68.25C29.65 62.64 67.05 40.96 76.72 35.35" />
				<path id="Layer" class="shp9" d="M47.73 45.2L47.73 37.4C46.35 38.51 45.41 39.07 44.93 39.07C44.7 39.07 44.49 38.98 44.32 38.78C44.14 38.59 44.05 38.37 44.05 38.12C44.05 37.83 44.14 37.61 44.31 37.48C44.49 37.34 44.8 37.16 45.24 36.95C45.9 36.62 46.43 36.28 46.83 35.92C47.23 35.56 47.58 35.15 47.88 34.71C48.19 34.26 48.39 33.99 48.48 33.88C48.57 33.78 48.75 33.73 49.01 33.73C49.3 33.73 49.53 33.85 49.7 34.08C49.88 34.32 49.97 34.64 49.97 35.05L49.97 44.87C49.97 46.02 49.59 46.59 48.84 46.59C48.51 46.59 48.24 46.47 48.04 46.24C47.84 46.01 47.73 45.66 47.73 45.2Z" />
			</g>
		</g>
		<g id="Layer">
			<path id="Layer" class="shp9" d="M38.07 136.2C38.07 136.85 37.9 137.4 37.56 137.86C37.22 138.32 36.72 138.67 36.06 138.91C35.4 139.14 34.59 139.26 33.65 139.26C32.74 139.26 31.97 139.13 31.32 138.88C30.68 138.62 30.2 138.3 29.89 137.91C29.59 137.53 29.43 137.14 29.43 136.75C29.43 136.49 29.53 136.27 29.73 136.09C29.93 135.91 30.17 135.81 30.48 135.81C30.74 135.81 30.94 135.88 31.08 136C31.23 136.12 31.36 136.28 31.49 136.5C31.75 136.92 32.06 137.23 32.42 137.44C32.78 137.64 33.27 137.75 33.89 137.75C34.39 137.75 34.81 137.64 35.13 137.43C35.45 137.22 35.61 136.98 35.61 136.72C35.61 136.3 35.45 136 35.11 135.81C34.77 135.63 34.22 135.45 33.45 135.28C32.59 135.07 31.88 134.87 31.34 134.64C30.79 134.43 30.36 134.14 30.03 133.78C29.71 133.41 29.54 132.97 29.54 132.45C29.54 131.98 29.69 131.53 30 131.12C30.3 130.7 30.74 130.37 31.33 130.12C31.92 129.87 32.62 129.74 33.45 129.74C34.11 129.74 34.69 129.81 35.21 129.93C35.73 130.06 36.16 130.23 36.51 130.44C36.86 130.65 37.12 130.89 37.3 131.14C37.49 131.4 37.58 131.65 37.58 131.9C37.58 132.17 37.48 132.39 37.29 132.56C37.09 132.73 36.82 132.81 36.46 132.81C36.2 132.81 35.98 132.75 35.8 132.61C35.62 132.47 35.41 132.26 35.18 131.99C34.99 131.76 34.76 131.58 34.51 131.44C34.25 131.31 33.9 131.24 33.45 131.24C33 131.24 32.62 131.33 32.32 131.51C32.02 131.69 31.87 131.91 31.87 132.18C31.87 132.43 31.98 132.63 32.2 132.78C32.42 132.94 32.72 133.07 33.1 133.17C33.47 133.28 33.99 133.4 34.64 133.55C35.43 133.73 36.06 133.94 36.56 134.19C37.05 134.43 37.43 134.72 37.68 135.06C37.94 135.39 38.07 135.77 38.07 136.2L38.07 136.2Z" />
			<path id="Layer" class="shp9" d="M42.71 131.07L42.71 137.84C42.71 138.31 42.59 138.66 42.35 138.9C42.11 139.14 41.81 139.26 41.44 139.26C41.07 139.26 40.77 139.14 40.54 138.89C40.31 138.65 40.2 138.3 40.2 137.84L40.2 131.14C40.2 130.68 40.31 130.33 40.54 130.1C40.77 129.86 41.07 129.74 41.44 129.74C41.81 129.74 42.11 129.86 42.35 130.1C42.59 130.33 42.71 130.66 42.71 131.07ZM41.47 128.65C41.12 128.65 40.82 128.56 40.57 128.36C40.32 128.16 40.2 127.87 40.2 127.51C40.2 127.17 40.32 126.9 40.58 126.69C40.83 126.47 41.13 126.37 41.47 126.37C41.79 126.37 42.08 126.46 42.34 126.66C42.59 126.85 42.71 127.13 42.71 127.51C42.71 127.87 42.59 128.15 42.35 128.35C42.1 128.55 41.81 128.65 41.47 128.65L41.47 128.65Z" />
			<path id="Layer" class="shp9" d="M47.6 131.04L47.6 131.32C48.04 130.78 48.53 130.38 49.05 130.13C49.58 129.87 50.18 129.74 50.87 129.74C51.53 129.74 52.12 129.88 52.65 130.15C53.17 130.42 53.56 130.8 53.82 131.29C53.98 131.57 54.09 131.88 54.14 132.21C54.19 132.55 54.21 132.97 54.21 133.48L54.21 137.84C54.21 138.31 54.1 138.66 53.87 138.9C53.64 139.14 53.34 139.26 52.97 139.26C52.59 139.26 52.29 139.14 52.06 138.89C51.82 138.65 51.71 138.3 51.71 137.84L51.71 133.94C51.71 133.17 51.59 132.58 51.36 132.17C51.13 131.76 50.67 131.55 49.98 131.55C49.53 131.55 49.12 131.68 48.75 131.93C48.39 132.18 48.12 132.52 47.94 132.95C47.82 133.3 47.76 133.95 47.76 134.91L47.76 137.84C47.76 138.31 47.64 138.67 47.4 138.91C47.17 139.14 46.86 139.26 46.49 139.26C46.12 139.26 45.82 139.14 45.59 138.89C45.36 138.65 45.24 138.3 45.24 137.84L45.24 131.07C45.24 130.63 45.34 130.29 45.55 130.07C45.76 129.85 46.05 129.74 46.41 129.74C46.63 129.74 46.83 129.79 47.01 129.89C47.19 129.99 47.33 130.13 47.44 130.33C47.55 130.52 47.6 130.76 47.6 131.04L47.6 131.04Z" />
			<path id="Layer" fill-rule="evenodd" class="shp9" d="M65.98 138.26C65.98 139.04 65.89 139.71 65.71 140.27C65.54 140.83 65.25 141.29 64.86 141.66C64.46 142.02 63.95 142.29 63.31 142.47C62.68 142.65 61.88 142.74 60.94 142.74C60.07 142.74 59.3 142.62 58.61 142.4C57.93 142.17 57.41 141.88 57.04 141.52C56.67 141.16 56.48 140.8 56.48 140.42C56.48 140.13 56.59 139.9 56.8 139.72C57.01 139.54 57.26 139.45 57.55 139.45C57.92 139.45 58.25 139.6 58.52 139.91C58.66 140.06 58.8 140.22 58.94 140.37C59.09 140.53 59.25 140.66 59.42 140.78C59.6 140.89 59.81 140.97 60.05 141.02C60.3 141.08 60.58 141.11 60.9 141.11C61.55 141.11 62.06 141.02 62.42 140.85C62.78 140.68 63.03 140.45 63.17 140.15C63.32 139.84 63.4 139.52 63.43 139.17C63.45 138.83 63.47 138.27 63.48 137.5C63.1 138.01 62.65 138.39 62.14 138.65C61.63 138.92 61.03 139.05 60.33 139.05C59.49 139.05 58.75 138.85 58.12 138.45C57.49 138.05 57.01 137.49 56.67 136.77C56.33 136.05 56.16 135.22 56.16 134.27C56.16 133.57 56.26 132.93 56.47 132.37C56.67 131.8 56.97 131.33 57.35 130.94C57.73 130.55 58.17 130.25 58.67 130.06C59.17 129.86 59.71 129.76 60.31 129.76C61.02 129.76 61.64 129.89 62.16 130.14C62.69 130.4 63.17 130.8 63.62 131.34L63.62 131.02C63.62 130.62 63.73 130.3 63.94 130.08C64.16 129.86 64.44 129.74 64.77 129.74C65.26 129.74 65.58 129.89 65.74 130.19C65.9 130.48 65.98 130.91 65.98 131.46L65.98 138.26ZM59.36 136.58C59.8 137.06 60.38 137.31 61.08 137.31C61.5 137.31 61.9 137.2 62.27 136.99C62.64 136.79 62.95 136.47 63.18 136.05C63.41 135.63 63.53 135.12 63.53 134.52C63.53 133.57 63.3 132.82 62.85 132.29C62.4 131.76 61.8 131.49 61.07 131.49C60.35 131.49 59.77 131.75 59.34 132.26C58.9 132.77 58.69 133.49 58.69 134.43C58.69 135.38 58.91 136.09 59.36 136.58Z" />
			<path id="Layer" class="shp9" d="M68.28 137.84L68.28 127.69C68.28 127.22 68.39 126.86 68.62 126.62C68.84 126.38 69.14 126.26 69.52 126.26C69.91 126.26 70.21 126.38 70.45 126.62C70.68 126.86 70.8 127.21 70.8 127.69L70.8 137.84C70.8 138.31 70.68 138.67 70.44 138.91C70.2 139.14 69.9 139.26 69.52 139.26C69.16 139.26 68.86 139.14 68.62 138.89C68.39 138.65 68.28 138.3 68.28 137.84L68.28 137.84Z" />
			<path id="Layer" fill-rule="evenodd" class="shp9" d="M75.5 135.08C75.51 135.61 75.62 136.08 75.85 136.48C76.07 136.89 76.37 137.2 76.74 137.4C77.11 137.61 77.52 137.71 77.97 137.71C78.27 137.71 78.55 137.68 78.8 137.61C79.05 137.55 79.29 137.44 79.52 137.3C79.75 137.16 79.97 137.01 80.17 136.85C80.36 136.69 80.62 136.48 80.93 136.2C81.06 136.1 81.25 136.05 81.49 136.05C81.74 136.05 81.95 136.11 82.11 136.24C82.27 136.38 82.35 136.56 82.35 136.8C82.35 137.01 82.26 137.26 82.08 137.54C81.91 137.83 81.64 138.1 81.28 138.36C80.92 138.62 80.47 138.83 79.92 139C79.38 139.18 78.75 139.26 78.05 139.26C76.43 139.26 75.17 138.83 74.27 137.98C73.38 137.12 72.93 135.96 72.93 134.49C72.93 133.79 73.04 133.15 73.26 132.56C73.48 131.97 73.8 131.46 74.23 131.04C74.65 130.62 75.17 130.29 75.8 130.07C76.42 129.84 77.1 129.73 77.86 129.73C78.85 129.73 79.69 129.92 80.39 130.31C81.1 130.69 81.62 131.19 81.97 131.8C82.32 132.41 82.5 133.04 82.5 133.67C82.5 134.26 82.32 134.64 81.96 134.82C81.59 134.99 81.08 135.08 80.43 135.08L75.5 135.08ZM75.5 133.75L80.07 133.75C80 132.95 79.77 132.35 79.37 131.95C78.97 131.55 78.44 131.36 77.78 131.36C77.15 131.36 76.64 131.56 76.23 131.96C75.83 132.36 75.59 132.96 75.5 133.75Z" />
			<path id="Layer" class="shp9" d="M97.45 136.2C97.45 136.85 97.28 137.4 96.94 137.86C96.6 138.32 96.11 138.67 95.44 138.91C94.78 139.14 93.98 139.26 93.03 139.26C92.13 139.26 91.35 139.13 90.71 138.88C90.06 138.62 89.59 138.3 89.28 137.91C88.97 137.53 88.82 137.14 88.82 136.75C88.82 136.49 88.92 136.27 89.11 136.09C89.31 135.91 89.56 135.81 89.86 135.81C90.12 135.81 90.33 135.88 90.47 136C90.61 136.12 90.74 136.28 90.87 136.5C91.13 136.92 91.44 137.23 91.8 137.44C92.16 137.64 92.65 137.75 93.27 137.75C93.78 137.75 94.19 137.64 94.51 137.43C94.83 137.22 95 136.98 95 136.72C95 136.3 94.83 136 94.49 135.81C94.16 135.63 93.61 135.45 92.84 135.28C91.97 135.07 91.27 134.87 90.72 134.64C90.18 134.43 89.74 134.14 89.42 133.78C89.09 133.41 88.93 132.97 88.93 132.45C88.93 131.98 89.08 131.53 89.38 131.12C89.68 130.7 90.13 130.37 90.71 130.12C91.3 129.87 92.01 129.74 92.84 129.74C93.49 129.74 94.08 129.81 94.6 129.93C95.11 130.06 95.55 130.23 95.9 130.44C96.24 130.65 96.51 130.89 96.69 131.14C96.87 131.4 96.96 131.65 96.96 131.9C96.96 132.17 96.86 132.39 96.67 132.56C96.48 132.73 96.2 132.81 95.85 132.81C95.59 132.81 95.37 132.75 95.19 132.61C95 132.47 94.8 132.26 94.56 131.99C94.37 131.76 94.15 131.58 93.89 131.44C93.63 131.31 93.28 131.24 92.84 131.24C92.38 131.24 92.01 131.33 91.7 131.51C91.4 131.69 91.25 131.91 91.25 132.18C91.25 132.43 91.36 132.63 91.58 132.78C91.81 132.94 92.1 133.07 92.48 133.17C92.85 133.28 93.37 133.4 94.03 133.55C94.81 133.73 95.45 133.94 95.94 134.19C96.44 134.43 96.81 134.72 97.07 135.06C97.32 135.39 97.45 135.77 97.45 136.2L97.45 136.2Z" />
			<path id="Layer" class="shp9" d="M108.61 136.36C108.61 136.66 108.51 136.97 108.33 137.3C108.14 137.63 107.85 137.95 107.47 138.25C107.09 138.55 106.6 138.79 106.02 138.97C105.43 139.15 104.78 139.25 104.04 139.25C102.49 139.25 101.27 138.82 100.4 137.98C99.53 137.14 99.09 136.01 99.09 134.59C99.09 133.63 99.29 132.78 99.69 132.04C100.09 131.31 100.67 130.73 101.43 130.33C102.18 129.93 103.09 129.73 104.14 129.73C104.79 129.73 105.39 129.82 105.93 129.99C106.47 130.17 106.94 130.4 107.31 130.68C107.69 130.96 107.98 131.26 108.18 131.58C108.38 131.89 108.48 132.19 108.48 132.46C108.48 132.74 108.37 132.98 108.14 133.17C107.92 133.37 107.65 133.47 107.33 133.47C107.12 133.47 106.94 133.42 106.81 133.32C106.67 133.22 106.51 133.05 106.34 132.83C106.03 132.4 105.71 132.07 105.38 131.85C105.04 131.64 104.62 131.53 104.1 131.53C103.36 131.53 102.76 131.8 102.3 132.34C101.85 132.88 101.62 133.62 101.62 134.56C101.62 135 101.68 135.4 101.79 135.77C101.91 136.14 102.08 136.45 102.3 136.71C102.52 136.97 102.79 137.17 103.1 137.3C103.42 137.44 103.76 137.5 104.14 137.5C104.64 137.5 105.07 137.4 105.43 137.18C105.79 136.96 106.11 136.63 106.39 136.18C106.54 135.92 106.71 135.72 106.88 135.57C107.06 135.42 107.28 135.34 107.54 135.34C107.85 135.34 108.1 135.45 108.3 135.67C108.51 135.89 108.61 136.12 108.61 136.36L108.61 136.36Z" />
			<path id="Layer" class="shp9" d="M113.3 135.88L113.3 137.84C113.3 138.31 113.18 138.67 112.94 138.91C112.7 139.14 112.4 139.26 112.03 139.26C111.67 139.26 111.37 139.14 111.14 138.9C110.9 138.66 110.79 138.31 110.79 137.84L110.79 131.32C110.79 130.27 111.19 129.74 112.01 129.74C112.43 129.74 112.73 129.87 112.92 130.11C113.1 130.36 113.2 130.72 113.22 131.2C113.52 130.72 113.83 130.36 114.15 130.11C114.46 129.87 114.89 129.74 115.41 129.74C115.94 129.74 116.46 129.87 116.96 130.11C117.45 130.36 117.7 130.68 117.7 131.09C117.7 131.38 117.6 131.61 117.38 131.8C117.17 131.98 116.94 132.08 116.7 132.08C116.61 132.08 116.38 132.02 116.03 131.92C115.67 131.81 115.36 131.76 115.09 131.76C114.72 131.76 114.42 131.85 114.19 132.03C113.96 132.21 113.77 132.48 113.64 132.83C113.52 133.19 113.43 133.61 113.38 134.1C113.33 134.59 113.3 135.18 113.3 135.88L113.3 135.88Z" />
			<path id="Layer" fill-rule="evenodd" class="shp9" d="M120.71 135.08C120.72 135.61 120.83 136.08 121.06 136.48C121.28 136.89 121.58 137.2 121.95 137.4C122.32 137.61 122.73 137.71 123.18 137.71C123.48 137.71 123.76 137.68 124.01 137.61C124.25 137.55 124.5 137.44 124.73 137.3C124.96 137.16 125.18 137.01 125.38 136.85C125.57 136.69 125.83 136.48 126.14 136.2C126.27 136.1 126.45 136.05 126.69 136.05C126.95 136.05 127.16 136.11 127.32 136.24C127.48 136.38 127.56 136.56 127.56 136.8C127.56 137.01 127.47 137.26 127.29 137.54C127.12 137.83 126.85 138.1 126.49 138.36C126.13 138.62 125.68 138.83 125.13 139C124.59 139.18 123.96 139.26 123.25 139.26C121.64 139.26 120.38 138.83 119.48 137.98C118.58 137.12 118.14 135.96 118.14 134.49C118.14 133.79 118.25 133.15 118.47 132.56C118.69 131.97 119.01 131.46 119.44 131.04C119.86 130.62 120.38 130.29 121 130.07C121.63 129.84 122.31 129.73 123.07 129.73C124.05 129.73 124.9 129.92 125.6 130.31C126.31 130.69 126.83 131.19 127.18 131.8C127.53 132.41 127.71 133.04 127.71 133.67C127.71 134.26 127.53 134.64 127.16 134.82C126.8 134.99 126.29 135.08 125.63 135.08L120.71 135.08ZM125.27 133.75C125.21 132.95 124.98 132.35 124.58 131.95C124.17 131.55 123.65 131.36 122.99 131.36C122.36 131.36 121.84 131.56 121.44 131.96C121.04 132.36 120.8 132.96 120.71 133.75L125.27 133.75Z" />
			<path id="Layer" fill-rule="evenodd" class="shp9" d="M131.93 135.08C131.94 135.61 132.05 136.08 132.28 136.48C132.5 136.89 132.8 137.2 133.17 137.4C133.55 137.61 133.96 137.71 134.4 137.71C134.71 137.71 134.98 137.68 135.23 137.61C135.48 137.55 135.72 137.44 135.95 137.3C136.19 137.16 136.4 137.01 136.6 136.85C136.8 136.69 137.05 136.48 137.37 136.2C137.49 136.1 137.68 136.05 137.92 136.05C138.18 136.05 138.39 136.11 138.55 136.24C138.71 136.38 138.79 136.56 138.79 136.8C138.79 137.01 138.7 137.26 138.52 137.54C138.34 137.83 138.07 138.1 137.71 138.36C137.35 138.62 136.9 138.83 136.36 139C135.81 139.18 135.19 139.26 134.48 139.26C132.86 139.26 131.6 138.83 130.71 137.98C129.81 137.12 129.36 135.96 129.36 134.49C129.36 133.79 129.47 133.15 129.69 132.56C129.91 131.97 130.24 131.46 130.66 131.04C131.08 130.62 131.61 130.29 132.23 130.07C132.85 129.84 133.54 129.73 134.29 129.73C135.28 129.73 136.12 129.92 136.83 130.31C137.53 130.69 138.06 131.19 138.41 131.8C138.76 132.41 138.93 133.04 138.93 133.67C138.93 134.26 138.75 134.64 138.39 134.82C138.03 134.99 137.52 135.08 136.86 135.08L131.93 135.08ZM136.5 133.75C136.44 132.95 136.2 132.35 135.8 131.95C135.4 131.55 134.87 131.36 134.21 131.36C133.58 131.36 133.07 131.56 132.67 131.96C132.26 132.36 132.02 132.96 131.93 133.75L136.5 133.75Z" />
			<path id="Layer" class="shp9" d="M143.34 131.04L143.34 131.32C143.78 130.78 144.27 130.38 144.79 130.13C145.32 129.87 145.92 129.74 146.61 129.74C147.27 129.74 147.86 129.88 148.39 130.15C148.91 130.42 149.3 130.8 149.56 131.29C149.72 131.57 149.83 131.88 149.88 132.21C149.93 132.55 149.95 132.97 149.95 133.48L149.95 137.84C149.95 138.31 149.84 138.66 149.61 138.9C149.38 139.14 149.08 139.26 148.71 139.26C148.33 139.26 148.03 139.14 147.8 138.89C147.56 138.65 147.45 138.3 147.45 137.84L147.45 133.94C147.45 133.17 147.33 132.58 147.1 132.17C146.87 131.76 146.41 131.55 145.72 131.55C145.27 131.55 144.86 131.68 144.49 131.93C144.13 132.18 143.86 132.52 143.68 132.95C143.56 133.3 143.5 133.95 143.5 134.91L143.5 137.84C143.5 138.31 143.38 138.67 143.14 138.91C142.91 139.14 142.6 139.26 142.22 139.26C141.86 139.26 141.56 139.14 141.33 138.89C141.1 138.65 140.98 138.3 140.98 137.84L140.98 131.07C140.98 130.63 141.08 130.29 141.29 130.07C141.5 129.85 141.79 129.74 142.15 129.74C142.37 129.74 142.57 129.79 142.75 129.89C142.93 129.99 143.07 130.13 143.18 130.33C143.29 130.52 143.34 130.76 143.34 131.04L143.34 131.04Z" />
		</g>
	</g>
	<g id="Layer">
		<g id="Layer">
			<g id="flatFold1">
				<path id="Layer" fill-rule="evenodd" class="shp0" d="M357.46 44.14L329.24 60.5C327.89 61.28 328.06 62.66 329.62 63.56L385.3 95.83C386.86 96.74 389.23 96.84 390.58 96.05L418.8 79.7" />
				<path id="Layer" fill-rule="evenodd" class="shp0" d="M418.8 79.7L447.01 63.34C448.37 62.56 448.2 61.18 446.63 60.28L390.96 28C389.4 27.1 387.03 27 385.67 27.78L357.46 44.14" />
				<path id="Layer" fill-rule="evenodd" class="shp1" d="M363.7 51.42L339.66 65.36L361.68 78.12L385.72 64.19L363.7 51.42L363.7 51.42Z" />
				<path id="Layer" fill-rule="evenodd" class="shp2" d="M367.3 78.11C368.46 77.44 370.34 77.44 371.5 78.11C372.66 78.78 372.66 79.88 371.5 80.55C370.34 81.22 368.46 81.22 367.3 80.55C366.14 79.88 366.14 78.78 367.3 78.11L367.3 78.11Z" />
				<path id="Layer" fill-rule="evenodd" class="shp2" d="M388.44 67.43L375.09 75.17L376.57 76.03L389.92 68.29L388.44 67.43Z" />
				<path id="Layer" fill-rule="evenodd" class="shp2" d="M390.99 68.91L377.64 76.65L379.13 77.51L392.47 69.77L390.99 68.91Z" />
				<path id="Layer" fill-rule="evenodd" class="shp2" d="M394.37 70.87L381.02 78.61L382.51 79.47L395.85 71.73L394.37 70.87Z" />
				<path id="Layer" fill-rule="evenodd" class="shp2" d="M396.92 72.35L383.57 80.09L385.06 80.95L398.41 73.21L396.92 72.35Z" />
				<path id="Layer" fill-rule="evenodd" class="shp2" d="M357.14 65.52L361.79 62.83L363.12 63.6L363.93 61.88L368.24 64.38L365.28 64.85L366.61 65.62L361.96 68.32L357.14 65.52L357.14 65.52Z" />
				<path id="Layer" fill-rule="evenodd" class="shp3" d="M396.25 60.91C397.42 60.22 399.33 60.22 400.51 60.91C401.69 61.59 401.69 62.7 400.51 63.38C399.33 64.06 397.42 64.06 396.25 63.38C395.07 62.7 395.07 61.59 396.25 60.91Z" />
				<path id="Layer" fill-rule="evenodd" class="shp3" d="M401.61 64.01C402.78 63.33 404.7 63.33 405.87 64.01C407.05 64.69 407.05 65.8 405.87 66.48C404.7 67.17 402.78 67.17 401.61 66.48C400.43 65.8 400.43 64.69 401.61 64.01L401.61 64.01Z" />
				<path id="Layer" fill-rule="evenodd" class="shp3" d="M406.97 67.12C408.15 66.44 410.06 66.44 411.23 67.12C412.41 67.8 412.41 68.91 411.23 69.59C410.06 70.27 408.15 70.27 406.97 69.59C405.79 68.91 405.79 67.8 406.97 67.12Z" />
				<path id="Layer" fill-rule="evenodd" class="shp3" d="M394.16 34.4L376.19 44.82L423.37 72.17L441.34 61.75L394.16 34.4L394.16 34.4Z" />
				<path id="Layer" fill-rule="evenodd" class="shp4" d="M418.7 48.62L401.67 58.49L402.96 59.24L419.98 49.37L418.7 48.62L418.7 48.62Z" />
				<path id="Layer" fill-rule="evenodd" class="shp4" d="M416.54 52.85L404.24 59.98L405.53 60.73L417.82 53.6L416.54 52.85L416.54 52.85Z" />
				<path id="Layer" fill-rule="evenodd" class="shp4" d="M423.84 51.6L406.81 61.47L408.1 62.22L425.12 52.35L423.84 51.6L423.84 51.6Z" />
				<path id="Layer" fill-rule="evenodd" class="shp4" d="M426.98 58.91L414.69 66.04L415.97 66.78L428.27 59.65L426.98 58.91L426.98 58.91Z" />
				<path id="Layer" fill-rule="evenodd" class="shp4" d="M429.14 54.68L412.12 64.55L413.4 65.29L430.43 55.42L429.14 54.68L429.14 54.68Z" />
				<path id="Layer" fill-rule="evenodd" class="shp4" d="M432.02 61.83L419.72 68.95L421 69.7L433.3 62.57L432.02 61.83L432.02 61.83Z" />
				<path id="Layer" fill-rule="evenodd" class="shp4" d="M434.17 57.59L417.15 67.46L418.43 68.21L435.46 58.34L434.17 57.59Z" />
				<path id="Layer" fill-rule="evenodd" class="shp4" d="M421.68 55.83L409.38 62.96L410.66 63.71L422.96 56.58L421.68 55.83L421.68 55.83Z" />
				<path id="Layer" fill-rule="evenodd" class="shp5" d="M390.19 32.2C389.82 31.99 389.27 31.96 388.95 32.15L335.96 62.86C335.65 63.05 335.69 63.37 336.05 63.58L337.37 64.34C337.74 64.56 338.29 64.58 338.61 64.4L391.6 33.68C391.91 33.49 391.87 33.17 391.51 32.96L390.19 32.2L390.19 32.2Z" />
				<path id="Layer" fill-rule="evenodd" class="shp10" d="M418.8 79.7L357.46 44.14" />
				<g id="Layer">
					<text id="ttps:/" style="opacity: 0.302;transform: matrix(1.082,-0.627,1.249,0.724,338.834,63.218)" >
						<tspan x="0" y="0" class="txt7">ttps:/</tspan>
					</text>
				</g>
				<path id="Layer" fill-rule="evenodd" class="shp5" d="M385.41 30.84C385.87 30.57 386.63 30.57 387.1 30.84C387.57 31.11 387.57 31.55 387.1 31.81C386.63 32.09 385.87 32.09 385.41 31.81C384.94 31.55 384.94 31.11 385.41 30.84Z" />
			</g>
			<path id="Layer" fill-rule="evenodd" class="shp8" d="M316.29 44.27L314.23 51.98L321.91 54.04" />
			<path id="Layer" fill-rule="evenodd" class="shp8" d="M332.63 34.79L340.31 36.86L338.25 44.57" />
			<path id="Layer" fill-rule="evenodd" class="shp8" d="M314.23 51.98C319.92 48.68 334.62 40.16 340.31 36.86" />
			<path id="Layer" fill-rule="evenodd" class="shp11" d="M346.96 26.49L344.9 34.2L352.58 36.27" />
			<path id="Layer" fill-rule="evenodd" class="shp11" d="M363.3 17.02L370.98 19.08L368.92 26.79" />
			<path id="Layer" fill-rule="evenodd" class="shp11" d="M344.9 34.2C350.59 30.9 365.29 22.38 370.98 19.08" />
			<path id="Layer" class="shp9" d="M322.42 34.56L322.42 26.75C321.03 27.87 320.09 28.43 319.61 28.43C319.38 28.43 319.18 28.33 319 28.14C318.82 27.95 318.73 27.73 318.73 27.47C318.73 27.18 318.82 26.97 318.99 26.83C319.17 26.69 319.48 26.52 319.92 26.3C320.58 25.97 321.11 25.63 321.51 25.27C321.91 24.91 322.26 24.51 322.56 24.06C322.87 23.62 323.07 23.34 323.16 23.24C323.26 23.14 323.43 23.08 323.69 23.08C323.98 23.08 324.21 23.2 324.39 23.44C324.56 23.67 324.65 23.99 324.65 24.41L324.65 34.22C324.65 35.37 324.27 35.95 323.52 35.95C323.19 35.95 322.92 35.83 322.72 35.6C322.52 35.36 322.42 35.02 322.42 34.56L322.42 34.56Z" />
			<path id="Layer" class="shp9" d="M353.44 16.11L357.72 16.11C358.15 16.11 358.48 16.2 358.7 16.38C358.92 16.56 359.04 16.81 359.04 17.12C359.04 17.4 358.95 17.64 358.77 17.84C358.59 18.03 358.32 18.13 357.96 18.13L351.92 18.13C351.51 18.13 351.19 18.01 350.96 17.77C350.73 17.54 350.62 17.26 350.62 16.94C350.62 16.73 350.69 16.46 350.84 16.12C350.99 15.78 351.15 15.51 351.32 15.32C352.05 14.53 352.71 13.85 353.29 13.29C353.88 12.72 354.3 12.35 354.55 12.18C355 11.85 355.37 11.51 355.67 11.18C355.97 10.84 356.19 10.5 356.35 10.15C356.51 9.8 356.58 9.45 356.58 9.12C356.58 8.75 356.5 8.42 356.33 8.13C356.17 7.84 355.94 7.62 355.65 7.46C355.37 7.3 355.05 7.22 354.71 7.22C354 7.22 353.43 7.55 353.02 8.21C352.97 8.29 352.88 8.53 352.75 8.91C352.62 9.29 352.47 9.59 352.31 9.79C352.15 10 351.91 10.1 351.6 10.1C351.33 10.1 351.1 10.01 350.92 9.82C350.74 9.63 350.65 9.37 350.65 9.05C350.65 8.65 350.74 8.24 350.9 7.81C351.07 7.38 351.33 7 351.66 6.65C352 6.3 352.43 6.02 352.94 5.8C353.46 5.59 354.07 5.48 354.76 5.48C355.6 5.48 356.31 5.62 356.9 5.89C357.29 6.07 357.62 6.33 357.91 6.65C358.2 6.97 358.43 7.34 358.59 7.76C358.75 8.18 358.83 8.61 358.83 9.06C358.83 9.77 358.66 10.42 358.33 11C357.99 11.58 357.65 12.03 357.3 12.36C356.95 12.69 356.36 13.21 355.54 13.91C354.71 14.61 354.15 15.16 353.84 15.55C353.71 15.7 353.58 15.89 353.44 16.11L353.44 16.11Z" />
		</g>
		<g id="Layer">
			<path id="Layer" class="shp9" d="M329.6 114.12L329.88 114.12L329.88 112.72C329.88 112.34 329.89 112.04 329.91 111.83C329.93 111.62 329.99 111.43 330.09 111.28C330.19 111.12 330.33 110.99 330.52 110.89C330.7 110.79 330.91 110.74 331.14 110.74C331.45 110.74 331.74 110.85 332 111.07C332.17 111.22 332.28 111.4 332.33 111.62C332.37 111.83 332.4 112.13 332.4 112.53L332.4 114.12L333.32 114.12C333.68 114.12 333.95 114.2 334.14 114.36C334.32 114.52 334.42 114.72 334.42 114.96C334.42 115.28 334.28 115.5 334.02 115.62C333.75 115.75 333.37 115.81 332.87 115.81L332.4 115.81L332.4 120.12C332.4 120.48 332.41 120.76 332.44 120.96C332.47 121.16 332.54 121.32 332.66 121.44C332.78 121.56 332.98 121.63 333.25 121.63C333.39 121.63 333.59 121.6 333.85 121.55C334.1 121.5 334.29 121.48 334.44 121.48C334.64 121.48 334.82 121.56 334.99 121.71C335.15 121.86 335.23 122.05 335.23 122.27C335.23 122.65 335.01 122.93 334.57 123.14C334.12 123.33 333.49 123.44 332.66 123.44C331.87 123.44 331.27 123.31 330.87 123.07C330.46 122.82 330.2 122.48 330.07 122.05C329.94 121.61 329.88 121.03 329.88 120.31L329.88 115.81L329.55 115.81C329.19 115.81 328.91 115.73 328.72 115.57C328.53 115.41 328.43 115.21 328.43 114.96C328.43 114.72 328.53 114.52 328.73 114.36C328.93 114.2 329.22 114.12 329.6 114.12Z" />
			<path id="Layer" class="shp9" d="M337.72 115.37L339.36 120.61L340.85 115.74C341.01 115.23 341.13 114.89 341.21 114.7C341.29 114.52 341.43 114.34 341.64 114.17C341.86 114 342.15 113.92 342.52 113.92C342.89 113.92 343.18 114 343.4 114.17C343.61 114.34 343.76 114.52 343.84 114.72C343.93 114.92 344.05 115.26 344.2 115.74L345.7 120.61L347.36 115.37C347.47 115 347.56 114.72 347.62 114.56C347.69 114.39 347.81 114.24 347.97 114.11C348.13 113.98 348.36 113.92 348.66 113.92C348.96 113.92 349.22 114.01 349.44 114.21C349.66 114.4 349.77 114.63 349.77 114.89C349.77 115.14 349.68 115.5 349.49 115.98L347.43 121.59C347.25 122.07 347.11 122.41 347.02 122.62C346.92 122.83 346.76 123.02 346.55 123.19C346.34 123.35 346.05 123.44 345.68 123.44C345.3 123.44 345 123.35 344.78 123.17C344.56 122.99 344.4 122.77 344.3 122.52C344.19 122.26 344.08 121.93 343.95 121.51L342.52 116.95L341.12 121.51C340.94 122.15 340.74 122.63 340.52 122.95C340.31 123.27 339.93 123.44 339.39 123.44C339.11 123.44 338.88 123.39 338.68 123.28C338.49 123.18 338.33 123.04 338.2 122.86C338.07 122.67 337.96 122.45 337.86 122.2C337.76 121.94 337.68 121.74 337.63 121.59L335.59 115.98C335.39 115.46 335.29 115.09 335.29 114.89C335.29 114.64 335.39 114.42 335.61 114.22C335.82 114.02 336.09 113.92 336.4 113.92C336.82 113.92 337.1 114.03 337.25 114.25C337.4 114.47 337.55 114.84 337.72 115.37L337.72 115.37Z" />
			<path id="Layer" fill-rule="evenodd" class="shp9" d="M360.33 120.61C360.1 121.19 359.76 121.7 359.32 122.12C358.88 122.55 358.35 122.87 357.73 123.1C357.12 123.32 356.43 123.44 355.66 123.44C354.89 123.44 354.21 123.32 353.6 123.09C352.99 122.86 352.46 122.54 352.02 122.11C351.57 121.68 351.24 121.18 351 120.6C350.77 120.02 350.66 119.38 350.66 118.68C350.66 117.97 350.78 117.32 351.01 116.73C351.24 116.14 351.58 115.64 352.01 115.22C352.45 114.8 352.98 114.48 353.6 114.26C354.22 114.03 354.91 113.92 355.66 113.92C356.42 113.92 357.11 114.03 357.73 114.26C358.35 114.49 358.88 114.81 359.33 115.24C359.77 115.66 360.11 116.16 360.34 116.75C360.57 117.33 360.68 117.97 360.68 118.68C360.68 119.37 360.57 120.02 360.33 120.61ZM357.48 116.45C357.03 115.92 356.42 115.65 355.66 115.65C355.17 115.65 354.73 115.77 354.36 116.01C353.98 116.24 353.69 116.59 353.49 117.06C353.29 117.52 353.19 118.06 353.19 118.68C353.19 119.29 353.29 119.82 353.49 120.28C353.69 120.74 353.97 121.09 354.34 121.33C354.71 121.57 355.15 121.69 355.66 121.69C356.42 121.69 357.03 121.43 357.48 120.89C357.93 120.36 358.16 119.62 358.16 118.68C358.16 117.72 357.93 116.98 357.48 116.45Z" />
			<path id="Layer" class="shp9" d="M375.5 120.37C375.5 121.02 375.33 121.57 374.99 122.03C374.65 122.49 374.15 122.84 373.49 123.08C372.83 123.32 372.03 123.44 371.08 123.44C370.17 123.44 369.4 123.31 368.75 123.05C368.11 122.79 367.63 122.47 367.32 122.08C367.02 121.7 366.86 121.31 366.86 120.92C366.86 120.67 366.96 120.44 367.16 120.26C367.36 120.08 367.6 119.99 367.9 119.99C368.17 119.99 368.37 120.05 368.51 120.17C368.66 120.29 368.79 120.46 368.92 120.67C369.18 121.09 369.49 121.4 369.85 121.61C370.21 121.81 370.7 121.92 371.32 121.92C371.82 121.92 372.23 121.81 372.56 121.6C372.88 121.4 373.04 121.16 373.04 120.89C373.04 120.48 372.87 120.18 372.54 119.99C372.2 119.8 371.65 119.62 370.88 119.45C370.02 119.25 369.31 119.04 368.77 118.82C368.22 118.6 367.79 118.31 367.46 117.95C367.14 117.59 366.97 117.14 366.97 116.62C366.97 116.15 367.12 115.71 367.43 115.29C367.73 114.87 368.17 114.54 368.76 114.29C369.35 114.04 370.05 113.92 370.88 113.92C371.54 113.92 372.12 113.98 372.64 114.11C373.16 114.23 373.59 114.4 373.94 114.61C374.29 114.82 374.55 115.06 374.73 115.31C374.92 115.57 375.01 115.82 375.01 116.07C375.01 116.34 374.91 116.56 374.72 116.73C374.52 116.9 374.25 116.99 373.89 116.99C373.63 116.99 373.41 116.92 373.23 116.78C373.05 116.64 372.84 116.44 372.61 116.16C372.42 115.94 372.19 115.75 371.94 115.61C371.68 115.48 371.33 115.41 370.88 115.41C370.43 115.41 370.05 115.5 369.75 115.68C369.45 115.86 369.3 116.08 369.3 116.35C369.3 116.6 369.41 116.8 369.63 116.96C369.85 117.11 370.15 117.24 370.52 117.35C370.9 117.45 371.42 117.58 372.07 117.72C372.85 117.9 373.49 118.11 373.99 118.36C374.48 118.6 374.86 118.89 375.11 119.23C375.37 119.56 375.5 119.95 375.5 120.37L375.5 120.37Z" />
			<path id="Layer" class="shp9" d="M386.65 120.54C386.65 120.83 386.56 121.14 386.37 121.47C386.19 121.8 385.9 122.12 385.52 122.42C385.13 122.72 384.65 122.96 384.06 123.14C383.48 123.33 382.82 123.42 382.09 123.42C380.53 123.42 379.32 123 378.45 122.15C377.57 121.31 377.14 120.18 377.14 118.76C377.14 117.8 377.34 116.95 377.74 116.22C378.14 115.48 378.71 114.91 379.47 114.5C380.23 114.1 381.13 113.9 382.18 113.9C382.83 113.9 383.43 113.99 383.98 114.17C384.52 114.34 384.98 114.57 385.36 114.85C385.74 115.13 386.03 115.43 386.23 115.75C386.43 116.06 386.53 116.36 386.53 116.64C386.53 116.92 386.41 117.15 386.19 117.35C385.96 117.54 385.69 117.64 385.37 117.64C385.16 117.64 384.99 117.59 384.85 117.49C384.71 117.39 384.56 117.23 384.39 117C384.08 116.57 383.76 116.24 383.42 116.03C383.09 115.81 382.66 115.7 382.14 115.7C381.4 115.7 380.8 115.97 380.35 116.51C379.89 117.05 379.66 117.79 379.66 118.73C379.66 119.17 379.72 119.57 379.84 119.94C379.96 120.31 380.12 120.62 380.35 120.88C380.57 121.14 380.84 121.34 381.15 121.48C381.46 121.61 381.81 121.68 382.18 121.68C382.69 121.68 383.12 121.57 383.48 121.35C383.84 121.13 384.15 120.8 384.43 120.36C384.59 120.09 384.75 119.89 384.93 119.74C385.11 119.59 385.33 119.52 385.59 119.52C385.89 119.52 386.15 119.62 386.35 119.84C386.55 120.06 386.65 120.29 386.65 120.54L386.65 120.54Z" />
			<path id="Layer" class="shp9" d="M391.35 120.06L391.35 122.01C391.35 122.49 391.23 122.84 390.99 123.08C390.75 123.32 390.44 123.44 390.08 123.44C389.71 123.44 389.42 123.31 389.18 123.08C388.95 122.83 388.83 122.48 388.83 122.01L388.83 115.5C388.83 114.44 389.24 113.92 390.06 113.92C390.48 113.92 390.78 114.04 390.96 114.29C391.15 114.53 391.25 114.89 391.27 115.37C391.57 114.89 391.88 114.53 392.19 114.29C392.51 114.04 392.93 113.92 393.46 113.92C393.99 113.92 394.5 114.04 395 114.29C395.5 114.53 395.75 114.86 395.75 115.26C395.75 115.55 395.64 115.78 395.43 115.97C395.22 116.16 394.99 116.25 394.74 116.25C394.65 116.25 394.43 116.2 394.07 116.09C393.72 115.99 393.41 115.93 393.14 115.93C392.77 115.93 392.47 116.02 392.23 116.2C392 116.38 391.82 116.65 391.69 117C391.56 117.36 391.47 117.78 391.42 118.27C391.37 118.76 391.35 119.35 391.35 120.06L391.35 120.06Z" />
			<path id="Layer" fill-rule="evenodd" class="shp9" d="M398.75 119.25C398.76 119.78 398.88 120.25 399.1 120.66C399.32 121.06 399.62 121.37 399.99 121.57C400.37 121.78 400.78 121.88 401.23 121.88C401.53 121.88 401.8 121.85 402.05 121.78C402.3 121.72 402.54 121.62 402.78 121.48C403.01 121.34 403.22 121.19 403.42 121.03C403.62 120.87 403.87 120.65 404.19 120.37C404.32 120.27 404.5 120.22 404.74 120.22C405 120.22 405.21 120.29 405.37 120.42C405.53 120.55 405.61 120.73 405.61 120.97C405.61 121.19 405.52 121.43 405.34 121.72C405.16 122 404.89 122.27 404.53 122.53C404.17 122.79 403.72 123.01 403.18 123.18C402.63 123.35 402.01 123.44 401.3 123.44C399.68 123.44 398.43 123.01 397.53 122.15C396.63 121.29 396.18 120.13 396.18 118.66C396.18 117.97 396.29 117.33 396.51 116.73C396.74 116.14 397.06 115.63 397.48 115.21C397.91 114.79 398.43 114.46 399.05 114.24C399.67 114.01 400.36 113.9 401.12 113.9C402.1 113.9 402.94 114.09 403.65 114.48C404.35 114.86 404.88 115.36 405.23 115.98C405.58 116.59 405.75 117.21 405.75 117.84C405.75 118.43 405.57 118.81 405.21 118.99C404.85 119.16 404.34 119.25 403.68 119.25L398.75 119.25ZM403.32 117.92C403.26 117.12 403.03 116.52 402.62 116.12C402.22 115.73 401.69 115.53 401.03 115.53C400.41 115.53 399.89 115.73 399.49 116.13C399.09 116.54 398.84 117.13 398.75 117.92L403.32 117.92Z" />
			<path id="Layer" fill-rule="evenodd" class="shp9" d="M409.98 119.25C409.98 119.78 410.1 120.25 410.32 120.66C410.55 121.06 410.85 121.37 411.22 121.57C411.59 121.78 412 121.88 412.45 121.88C412.75 121.88 413.03 121.85 413.28 121.78C413.52 121.72 413.77 121.62 414 121.48C414.23 121.34 414.45 121.19 414.65 121.03C414.84 120.87 415.1 120.65 415.41 120.37C415.54 120.27 415.72 120.22 415.96 120.22C416.22 120.22 416.43 120.29 416.59 120.42C416.75 120.55 416.83 120.73 416.83 120.97C416.83 121.19 416.74 121.43 416.56 121.72C416.39 122 416.12 122.27 415.76 122.53C415.4 122.79 414.94 123.01 414.4 123.18C413.86 123.35 413.23 123.44 412.52 123.44C410.91 123.44 409.65 123.01 408.75 122.15C407.85 121.29 407.41 120.13 407.41 118.66C407.41 117.97 407.52 117.33 407.74 116.73C407.96 116.14 408.28 115.63 408.71 115.21C409.13 114.79 409.65 114.46 410.27 114.24C410.89 114.01 411.58 113.9 412.34 113.9C413.32 113.9 414.17 114.09 414.87 114.48C415.57 114.86 416.1 115.36 416.45 115.98C416.8 116.59 416.98 117.21 416.98 117.84C416.98 118.43 416.8 118.81 416.43 118.99C416.07 119.16 415.56 119.25 414.9 119.25L409.98 119.25ZM414.54 117.92C414.48 117.12 414.25 116.52 413.85 116.12C413.44 115.73 412.91 115.53 412.26 115.53C411.63 115.53 411.11 115.73 410.71 116.13C410.31 116.54 410.06 117.13 409.98 117.92L414.54 117.92Z" />
			<path id="Layer" class="shp9" d="M421.39 115.21L421.39 115.5C421.83 114.95 422.31 114.55 422.84 114.3C423.37 114.04 423.97 113.92 424.65 113.92C425.32 113.92 425.91 114.05 426.43 114.32C426.95 114.59 427.34 114.97 427.6 115.46C427.77 115.75 427.88 116.05 427.93 116.39C427.97 116.72 428 117.14 428 117.66L428 122.01C428 122.48 427.88 122.83 427.65 123.08C427.42 123.31 427.12 123.44 426.75 123.44C426.38 123.44 426.08 123.31 425.84 123.07C425.61 122.82 425.49 122.47 425.49 122.01L425.49 118.11C425.49 117.34 425.38 116.75 425.14 116.34C424.91 115.93 424.45 115.73 423.77 115.73C423.32 115.73 422.91 115.85 422.54 116.1C422.17 116.35 421.9 116.69 421.73 117.12C421.61 117.47 421.54 118.12 421.54 119.08L421.54 122.01C421.54 122.49 421.43 122.84 421.19 123.08C420.95 123.32 420.65 123.44 420.27 123.44C419.91 123.44 419.61 123.31 419.38 123.07C419.14 122.82 419.03 122.47 419.03 122.01L419.03 115.25C419.03 114.8 419.13 114.47 419.34 114.25C419.55 114.03 419.83 113.92 420.2 113.92C420.42 113.92 420.62 113.97 420.8 114.06C420.97 114.16 421.12 114.31 421.23 114.5C421.33 114.69 421.39 114.93 421.39 115.21L421.39 115.21Z" />
			<path id="Layer" class="shp9" d="M438.61 120.37C438.61 121.02 438.45 121.57 438.11 122.03C437.77 122.49 437.27 122.84 436.61 123.08C435.95 123.32 435.14 123.44 434.2 123.44C433.29 123.44 432.52 123.31 431.87 123.05C431.23 122.79 430.75 122.47 430.44 122.08C430.14 121.7 429.98 121.31 429.98 120.92C429.98 120.67 430.08 120.44 430.28 120.26C430.47 120.08 430.72 119.99 431.02 119.99C431.29 119.99 431.49 120.05 431.63 120.17C431.77 120.29 431.91 120.46 432.04 120.67C432.3 121.09 432.61 121.4 432.96 121.61C433.32 121.81 433.82 121.92 434.44 121.92C434.94 121.92 435.35 121.81 435.68 121.6C436 121.4 436.16 121.16 436.16 120.89C436.16 120.48 435.99 120.18 435.66 119.99C435.32 119.8 434.77 119.62 434 119.45C433.14 119.25 432.43 119.04 431.89 118.82C431.34 118.6 430.91 118.31 430.58 117.95C430.26 117.59 430.09 117.14 430.09 116.62C430.09 116.15 430.24 115.71 430.55 115.29C430.85 114.87 431.29 114.54 431.88 114.29C432.46 114.04 433.17 113.92 434 113.92C434.66 113.92 435.24 113.98 435.76 114.11C436.28 114.23 436.71 114.4 437.06 114.61C437.41 114.82 437.67 115.06 437.85 115.31C438.03 115.57 438.13 115.82 438.13 116.07C438.13 116.34 438.03 116.56 437.83 116.73C437.64 116.9 437.37 116.99 437.01 116.99C436.75 116.99 436.53 116.92 436.35 116.78C436.17 116.64 435.96 116.44 435.73 116.16C435.54 115.94 435.31 115.75 435.06 115.61C434.8 115.48 434.45 115.41 434 115.41C433.55 115.41 433.17 115.5 432.87 115.68C432.57 115.86 432.42 116.08 432.42 116.35C432.42 116.6 432.53 116.8 432.75 116.96C432.97 117.11 433.27 117.24 433.64 117.35C434.02 117.45 434.54 117.58 435.19 117.72C435.97 117.9 436.61 118.11 437.11 118.36C437.6 118.6 437.98 118.89 438.23 119.23C438.49 119.56 438.61 119.95 438.61 120.37L438.61 120.37Z" />
		</g>
	</g>
</svg>