<svg xmlns="http://www.w3.org/2000/svg" viewBox="0 0 700 300" width="700" height="300">
	<defs>
		<clipPath clipPathUnits="userSpaceOnUse" id="cp1">
			<path d="M-109 -128L1043 -128L1043 736L-109 736L-109 -128Z" />
		</clipPath>
	</defs>
	<style>
		tspan { white-space:pre }
		.shp0 { fill: none } 
		.shp1 { fill: none;stroke: #c2c2c2;stroke-width: 2 } 
		.shp2 { fill: none;stroke: #000000;stroke-linejoin:round;stroke-width: 2 } 
		.shp3 { fill: #000000 } 
	</style>
	<g id="Clip-Path" clip-path="url(#cp1)">
		<g id="Layer">
			<path id="Layer" fill-rule="evenodd" class="shp0" d="M-109 -128L1043 -128L1043 736L-109 736L-109 -128Z" />
			<path id="Layer" fill-rule="evenodd" class="shp0" d="M371 52.77L371 86.77L556.86 86.77L556.86 120.77" />
			<path id="Layer" fill-rule="evenodd" class="shp1" d="M371 52.77L371 86.77L556.86 86.77L556.86 120.77" />
			<path id="Layer" fill-rule="evenodd" class="shp0" d="M185.14 120.78L185.14 86.77L371 86.77L371 52.78" />
			<path id="Layer" fill-rule="evenodd" class="shp1" d="M185.14 120.78L185.14 86.77L371 86.77L371 52.78" />
			<path id="Layer" fill-rule="evenodd" class="shp0" d="M185.14 159.23L185.14 195.23L273.9 195.23L273.9 231.23" />
			<path id="Layer" fill-rule="evenodd" class="shp1" d="M185.14 159.23L185.14 195.23L273.9 195.23L273.9 231.23" />
			<path id="Layer" fill-rule="evenodd" class="shp0" d="M96.4 231.23L96.4 195.23L185.16 195.23L185.16 159.23" />
			<path id="Layer" fill-rule="evenodd" class="shp1" d="M96.4 231.23L96.4 195.23L185.16 195.23L185.16 159.23" />
			<path id="Layer" fill-rule="evenodd" class="shp0" d="M290.13 14.31L451.87 14.31L451.87 52.77L290.13 52.77L290.13 14.31Z" />
			<path id="Layer" fill-rule="evenodd" class="shp2" d="M290.13 14.31L451.87 14.31L451.87 52.77L290.13 52.77L290.13 14.31Z" />
			<path id="Layer" fill-rule="evenodd" class="shp3" d="M337.4 29.88L334.35 29.88L334.35 38.34L333.12 38.34L333.12 29.88L330.07 29.88L330.07 28.87L337.4 28.87L337.4 29.88ZM339.82 32.15C340.36 31.49 341.06 31.17 341.91 31.17C343.4 31.17 344.15 32 344.16 33.68L344.16 38.34L342.96 38.34L342.96 33.68C342.95 33.17 342.83 32.8 342.6 32.56C342.38 32.31 342.03 32.18 341.54 32.18C341.15 32.18 340.81 32.29 340.51 32.49C340.21 32.7 339.98 32.98 339.82 33.32L339.82 38.34L338.62 38.34L338.62 28.34L339.82 28.34L339.82 32.15ZM347.27 38.34L346.07 38.34L346.07 31.29L347.27 31.29L347.27 38.34ZM345.97 29.43C345.97 29.23 346.03 29.07 346.14 28.93C346.27 28.8 346.45 28.73 346.67 28.73C346.91 28.73 347.09 28.8 347.21 28.93C347.33 29.07 347.39 29.23 347.39 29.43C347.39 29.63 347.33 29.8 347.21 29.93C347.09 30.06 346.91 30.12 346.67 30.12C346.45 30.12 346.27 30.06 346.14 29.93C346.03 29.8 345.97 29.63 345.97 29.43ZM353.3 36.46C353.3 36.14 353.17 35.89 352.92 35.71C352.69 35.54 352.26 35.38 351.64 35.26C351.04 35.12 350.56 34.97 350.19 34.79C349.84 34.6 349.57 34.38 349.39 34.13C349.23 33.87 349.14 33.57 349.14 33.23C349.14 32.66 349.39 32.17 349.88 31.78C350.37 31.37 350.99 31.17 351.75 31.17C352.54 31.17 353.19 31.37 353.69 31.79C354.19 32.2 354.44 32.72 354.44 33.37L353.22 33.37C353.22 33.04 353.08 32.75 352.8 32.51C352.52 32.27 352.17 32.15 351.75 32.15C351.32 32.15 350.97 32.25 350.72 32.45C350.47 32.63 350.35 32.88 350.35 33.2C350.35 33.48 350.46 33.7 350.69 33.85C350.92 34 351.34 34.14 351.94 34.28C352.54 34.41 353.03 34.57 353.39 34.76C353.77 34.94 354.04 35.16 354.22 35.43C354.41 35.69 354.5 36.01 354.5 36.38C354.5 37.01 354.25 37.52 353.74 37.9C353.24 38.28 352.59 38.46 351.78 38.46C351.22 38.46 350.72 38.36 350.28 38.17C349.86 37.97 349.52 37.69 349.27 37.34C349.03 36.97 348.91 36.58 348.91 36.17L350.11 36.17C350.13 36.57 350.29 36.9 350.6 37.13C350.9 37.36 351.29 37.48 351.78 37.48C352.24 37.48 352.61 37.39 352.88 37.21C353.16 37.03 353.3 36.78 353.3 36.46ZM362.28 38.46C361.34 38.46 360.56 38.15 359.96 37.53C359.36 36.9 359.07 36.06 359.07 35.01L359.07 34.79C359.07 34.09 359.2 33.47 359.46 32.93C359.73 32.38 360.1 31.95 360.58 31.63C361.06 31.32 361.58 31.17 362.14 31.17C363.06 31.17 363.77 31.47 364.27 32.07C364.78 32.68 365.03 33.54 365.03 34.67L365.03 35.17L360.27 35.17C360.28 35.85 360.48 36.41 360.86 36.84C361.26 37.27 361.75 37.48 362.35 37.48C362.77 37.48 363.13 37.4 363.42 37.23C363.73 37.05 363.99 36.82 364.21 36.54L364.94 37.1C364.36 38.01 363.47 38.46 362.28 38.46ZM362.14 32.15C361.65 32.15 361.24 32.33 360.91 32.68C360.59 33.04 360.38 33.53 360.3 34.17L363.83 34.17L363.83 34.09C363.8 33.47 363.63 33 363.33 32.67C363.04 32.32 362.64 32.15 362.14 32.15ZM368.8 33.87L370.35 31.29L371.75 31.29L369.45 34.78L371.83 38.34L370.44 38.34L368.81 35.7L367.19 38.34L365.78 38.34L368.16 34.78L365.86 31.29L367.25 31.29L368.8 33.87ZM378.98 34.9C378.98 35.97 378.74 36.84 378.25 37.49C377.76 38.14 377.09 38.46 376.25 38.46C375.39 38.46 374.72 38.19 374.23 37.65L374.23 41.04L373.03 41.04L373.03 31.29L374.14 31.29L374.19 32.07C374.69 31.47 375.37 31.17 376.23 31.17C377.08 31.17 377.74 31.48 378.23 32.12C378.73 32.75 378.98 33.65 378.98 34.79L378.98 34.9ZM377.78 34.76C377.78 33.97 377.61 33.34 377.26 32.88C376.93 32.42 376.47 32.18 375.87 32.18C375.14 32.18 374.6 32.5 374.23 33.15L374.23 36.53C374.6 37.16 375.15 37.48 375.89 37.48C376.47 37.48 376.93 37.25 377.26 36.81C377.61 36.35 377.78 35.67 377.78 34.76ZM381.82 38.34L380.62 38.34L380.62 28.34L381.82 28.34L381.82 38.34ZM388.1 38.34C388.03 38.2 387.97 37.96 387.93 37.6C387.37 38.18 386.69 38.46 385.91 38.46C385.23 38.46 384.66 38.27 384.21 37.88C383.76 37.49 383.54 36.99 383.54 36.38C383.54 35.66 383.81 35.09 384.37 34.68C384.93 34.28 385.71 34.07 386.73 34.07L387.9 34.07L387.9 33.51C387.9 33.09 387.77 32.76 387.52 32.51C387.27 32.26 386.9 32.13 386.41 32.13C385.99 32.13 385.63 32.24 385.33 32.46C385.04 32.68 384.9 32.94 384.9 33.24L383.69 33.24C383.69 32.9 383.81 32.57 384.05 32.24C384.3 31.91 384.64 31.65 385.07 31.46C385.51 31.27 385.98 31.17 386.49 31.17C387.3 31.17 387.94 31.37 388.4 31.78C388.86 32.18 389.1 32.74 389.12 33.45L389.12 36.7C389.12 37.34 389.19 37.85 389.35 38.23L389.35 38.34L388.1 38.34ZM386.1 37.42C386.48 37.42 386.83 37.32 387.16 37.13C387.51 36.94 387.75 36.68 387.9 36.37L387.9 34.92L386.96 34.92C385.48 34.92 384.74 35.35 384.74 36.21C384.74 36.59 384.87 36.88 385.12 37.1C385.38 37.31 385.7 37.42 386.1 37.42ZM392.3 38.34L391.1 38.34L391.1 31.29L392.3 31.29L392.3 38.34ZM391.01 29.43C391.01 29.23 391.06 29.07 391.18 28.93C391.3 28.8 391.48 28.73 391.71 28.73C391.95 28.73 392.13 28.8 392.24 28.93C392.37 29.07 392.43 29.23 392.43 29.43C392.43 29.63 392.37 29.8 392.24 29.93C392.13 30.06 391.95 30.12 391.71 30.12C391.48 30.12 391.3 30.06 391.18 29.93C391.06 29.8 391.01 29.63 391.01 29.43ZM395.37 31.29L395.41 32.18C395.94 31.5 396.65 31.17 397.52 31.17C399.01 31.17 399.76 32 399.77 33.68L399.77 38.34L398.57 38.34L398.57 33.68C398.56 33.17 398.44 32.8 398.21 32.56C397.99 32.31 397.64 32.18 397.15 32.18C396.76 32.18 396.42 32.29 396.12 32.49C395.82 32.7 395.59 32.98 395.43 33.32L395.43 38.34L394.23 38.34L394.23 31.29L395.37 31.29ZM404.5 38.46C403.55 38.46 402.78 38.15 402.17 37.53C401.58 36.9 401.28 36.06 401.28 35.01L401.28 34.79C401.28 34.09 401.41 33.47 401.67 32.93C401.94 32.38 402.32 31.95 402.8 31.63C403.28 31.32 403.8 31.17 404.36 31.17C405.28 31.17 405.99 31.47 406.49 32.07C407 32.68 407.25 33.54 407.25 34.67L407.25 35.17L402.49 35.17C402.5 35.85 402.69 36.41 403.08 36.84C403.47 37.27 403.97 37.48 404.56 37.48C404.99 37.48 405.35 37.4 405.64 37.23C405.94 37.05 406.2 36.82 406.42 36.54L407.16 37.1C406.57 38.01 405.69 38.46 404.5 38.46ZM404.36 32.15C403.87 32.15 403.46 32.33 403.13 32.68C402.8 33.04 402.6 33.53 402.52 34.17L406.05 34.17L406.05 34.09C406.02 33.47 405.85 33 405.55 32.67C405.26 32.32 404.86 32.15 404.36 32.15ZM412.05 32.37C411.87 32.35 411.67 32.34 411.45 32.34C410.66 32.34 410.12 32.67 409.84 33.34L409.84 38.34L408.64 38.34L408.64 31.29L409.81 31.29L409.84 32.1C410.23 31.48 410.79 31.17 411.51 31.17C411.74 31.17 411.92 31.2 412.05 31.26L412.05 32.37Z" />
			<path id="Layer" fill-rule="evenodd" class="shp0" d="M104.4 120.78L265.88 120.78L265.88 159.23L104.4 159.23L104.4 120.78Z" />
			<path id="Layer" fill-rule="evenodd" class="shp2" d="M104.4 120.78L265.88 120.78L265.88 159.23L104.4 159.23L104.4 120.78Z" />
			<path id="Layer" fill-rule="evenodd" class="shp3" d="M145.41 140.62L141.42 140.62L141.42 144.81L140.17 144.81L140.17 135.34L146.05 135.34L146.05 136.35L141.42 136.35L141.42 139.6L145.41 139.6L145.41 140.62ZM147.31 139.35C147.58 138.8 147.96 138.38 148.43 138.09C148.92 137.78 149.48 137.63 150.09 137.63C151.05 137.63 151.82 137.97 152.42 138.63C153.01 139.29 153.31 140.17 153.31 141.27L153.31 141.37C153.31 142.04 153.18 142.66 152.92 143.21C152.66 143.75 152.28 144.18 151.79 144.48C151.3 144.78 150.74 144.93 150.11 144.93C149.16 144.93 148.39 144.6 147.79 143.95C147.2 143.28 146.9 142.4 146.9 141.31L146.9 141.23C146.9 140.53 147.04 139.9 147.31 139.35ZM148.11 141.37C148.11 142.15 148.29 142.77 148.65 143.24C149.02 143.71 149.5 143.95 150.11 143.95C150.72 143.95 151.21 143.71 151.56 143.23C151.92 142.75 152.11 142.08 152.11 141.23C152.11 140.45 151.92 139.82 151.56 139.34C151.19 138.86 150.71 138.62 150.09 138.62C149.5 138.62 149.02 138.86 148.65 139.34C148.29 139.81 148.11 140.48 148.11 141.37ZM156.13 144.81L154.93 144.81L154.93 134.81L156.13 134.81L156.13 144.81ZM157.77 141.23C157.77 140.14 158.03 139.27 158.54 138.62C159.05 137.96 159.71 137.63 160.54 137.63C161.37 137.63 162.03 137.91 162.5 138.48L162.5 134.81L163.71 134.81L163.71 144.81L162.6 144.81L162.54 144.06C162.06 144.64 161.39 144.93 160.54 144.93C159.71 144.93 159.05 144.6 158.54 143.93C158.03 143.26 157.77 142.39 157.77 141.32L157.77 141.23ZM158.97 141.37C158.97 142.16 159.13 142.78 159.46 143.24C159.79 143.69 160.25 143.91 160.83 143.91C161.59 143.91 162.15 143.57 162.5 142.88L162.5 139.65C162.14 138.98 161.59 138.65 160.85 138.65C160.25 138.65 159.79 138.88 159.46 139.34C159.13 139.79 158.97 140.47 158.97 141.37ZM169.93 144.81C169.85 144.67 169.8 144.43 169.76 144.07C169.19 144.64 168.52 144.93 167.74 144.93C167.05 144.93 166.48 144.74 166.04 144.35C165.59 143.96 165.36 143.46 165.36 142.85C165.36 142.12 165.64 141.56 166.19 141.15C166.76 140.74 167.54 140.54 168.55 140.54L169.72 140.54L169.72 139.98C169.72 139.56 169.6 139.23 169.35 138.98C169.1 138.73 168.73 138.6 168.24 138.6C167.81 138.6 167.45 138.71 167.16 138.93C166.87 139.15 166.72 139.41 166.72 139.71L165.52 139.71C165.52 139.37 165.64 139.03 165.88 138.71C166.13 138.38 166.47 138.12 166.9 137.93C167.33 137.73 167.81 137.63 168.32 137.63C169.13 137.63 169.77 137.84 170.22 138.24C170.68 138.65 170.92 139.21 170.94 139.91L170.94 143.16C170.94 143.81 171.02 144.32 171.18 144.7L171.18 144.81L169.93 144.81ZM167.93 143.88C168.3 143.88 168.66 143.79 168.99 143.6C169.33 143.4 169.58 143.15 169.72 142.84L169.72 141.38L168.79 141.38C167.31 141.38 166.57 141.82 166.57 142.68C166.57 143.06 166.69 143.35 166.94 143.57C167.2 143.78 167.53 143.88 167.93 143.88ZM178.79 141.37C178.79 142.44 178.54 143.31 178.04 143.96C177.55 144.61 176.89 144.93 176.05 144.93C175.17 144.93 174.48 144.62 173.99 143.99L173.93 144.81L172.82 144.81L172.82 134.81L174.02 134.81L174.02 138.54C174.51 137.94 175.18 137.63 176.04 137.63C176.89 137.63 177.56 137.96 178.05 138.6C178.54 139.25 178.79 140.13 178.79 141.26L178.79 141.37ZM177.58 141.23C177.58 140.4 177.42 139.77 177.1 139.32C176.79 138.87 176.33 138.65 175.74 138.65C174.95 138.65 174.37 139.02 174.02 139.76L174.02 142.81C174.4 143.54 174.97 143.91 175.75 143.91C176.33 143.91 176.78 143.69 177.1 143.24C177.42 142.79 177.58 142.12 177.58 141.23ZM181.61 144.81L180.4 144.81L180.4 134.81L181.61 134.81L181.61 144.81ZM186.45 144.93C185.5 144.93 184.73 144.62 184.12 143.99C183.53 143.37 183.23 142.53 183.23 141.48L183.23 141.26C183.23 140.56 183.36 139.94 183.62 139.4C183.89 138.85 184.27 138.41 184.75 138.1C185.23 137.79 185.75 137.63 186.31 137.63C187.23 137.63 187.94 137.94 188.44 138.54C188.95 139.14 189.2 140.01 189.2 141.13L189.2 141.63L184.44 141.63C184.45 142.32 184.64 142.88 185.03 143.31C185.43 143.73 185.92 143.95 186.51 143.95C186.94 143.95 187.3 143.86 187.59 143.7C187.89 143.52 188.15 143.29 188.37 143.01L189.11 143.57C188.52 144.48 187.64 144.93 186.45 144.93ZM186.31 138.62C185.82 138.62 185.41 138.79 185.08 139.15C184.75 139.5 184.55 140 184.47 140.63L188 140.63L188 140.56C187.97 139.94 187.8 139.47 187.5 139.13C187.21 138.79 186.81 138.62 186.31 138.62ZM193.61 141.23C193.61 140.14 193.86 139.27 194.37 138.62C194.88 137.96 195.55 137.63 196.37 137.63C197.21 137.63 197.86 137.91 198.34 138.48L198.34 134.81L199.55 134.81L199.55 144.81L198.44 144.81L198.37 144.06C197.9 144.64 197.23 144.93 196.37 144.93C195.55 144.93 194.88 144.6 194.37 143.93C193.86 143.26 193.61 142.39 193.61 141.32L193.61 141.23ZM194.81 141.37C194.81 142.16 194.97 142.78 195.3 143.24C195.63 143.69 196.09 143.91 196.67 143.91C197.43 143.91 197.99 143.57 198.34 142.88L198.34 139.65C197.98 138.98 197.43 138.65 196.69 138.65C196.09 138.65 195.63 138.88 195.3 139.34C194.97 139.79 194.81 140.47 194.81 141.37ZM204.33 144.93C203.38 144.93 202.6 144.62 202 143.99C201.41 143.37 201.11 142.53 201.11 141.48L201.11 141.26C201.11 140.56 201.24 139.94 201.5 139.4C201.77 138.85 202.15 138.41 202.63 138.1C203.1 137.79 203.63 137.63 204.19 137.63C205.1 137.63 205.81 137.94 206.31 138.54C206.82 139.14 207.08 140.01 207.08 141.13L207.08 141.63L202.31 141.63C202.32 142.32 202.52 142.88 202.91 143.31C203.3 143.73 203.8 143.95 204.39 143.95C204.82 143.95 205.18 143.86 205.47 143.7C205.77 143.52 206.03 143.29 206.25 143.01L206.98 143.57C206.4 144.48 205.52 144.93 204.33 144.93ZM204.19 138.62C203.7 138.62 203.29 138.79 202.95 139.15C202.63 139.5 202.43 140 202.34 140.63L205.88 140.63L205.88 140.56C205.84 139.94 205.68 139.47 205.38 139.13C205.08 138.79 204.69 138.62 204.19 138.62ZM210.71 143.16L212.46 137.76L213.68 137.76L211.16 144.81L210.24 144.81L207.7 137.76L208.91 137.76L210.71 143.16ZM216.15 144.81L214.95 144.81L214.95 137.76L216.15 137.76L216.15 144.81ZM214.85 135.9C214.85 135.7 214.91 135.53 215.03 135.4C215.15 135.26 215.33 135.2 215.56 135.2C215.8 135.2 215.97 135.26 216.09 135.4C216.21 135.53 216.28 135.7 216.28 135.9C216.28 136.1 216.21 136.26 216.09 136.4C215.97 136.52 215.8 136.59 215.56 136.59C215.33 136.59 215.15 136.52 215.03 136.4C214.91 136.26 214.85 136.1 214.85 135.9ZM220.9 143.95C221.33 143.95 221.7 143.82 222.03 143.56C222.35 143.29 222.53 142.97 222.56 142.59L223.7 142.59C223.68 142.99 223.54 143.38 223.28 143.74C223.03 144.11 222.69 144.4 222.26 144.62C221.83 144.83 221.38 144.93 220.9 144.93C219.94 144.93 219.18 144.61 218.6 143.98C218.04 143.33 217.76 142.46 217.76 141.35L217.76 141.15C217.76 140.46 217.89 139.85 218.14 139.32C218.4 138.79 218.76 138.38 219.23 138.09C219.7 137.78 220.26 137.63 220.9 137.63C221.68 137.63 222.33 137.87 222.85 138.35C223.39 138.82 223.67 139.43 223.7 140.18L222.56 140.18C222.53 139.73 222.35 139.36 222.04 139.07C221.73 138.77 221.35 138.62 220.9 138.62C220.29 138.62 219.81 138.84 219.46 139.29C219.13 139.73 218.96 140.36 218.96 141.2L218.96 141.41C218.96 142.23 219.13 142.85 219.46 143.29C219.81 143.73 220.29 143.95 220.9 143.95ZM227.97 144.93C227.02 144.93 226.25 144.62 225.64 143.99C225.05 143.37 224.75 142.53 224.75 141.48L224.75 141.26C224.75 140.56 224.88 139.94 225.14 139.4C225.41 138.85 225.79 138.41 226.27 138.1C226.75 137.79 227.27 137.63 227.83 137.63C228.75 137.63 229.46 137.94 229.96 138.54C230.47 139.14 230.72 140.01 230.72 141.13L230.72 141.63L225.96 141.63C225.97 142.32 226.16 142.88 226.55 143.31C226.95 143.73 227.44 143.95 228.03 143.95C228.46 143.95 228.82 143.86 229.11 143.7C229.41 143.52 229.67 143.29 229.89 143.01L230.63 143.57C230.04 144.48 229.16 144.93 227.97 144.93ZM227.83 138.62C227.34 138.62 226.93 138.79 226.6 139.15C226.27 139.5 226.07 140 225.99 140.63L229.52 140.63L229.52 140.56C229.49 139.94 229.32 139.47 229.02 139.13C228.73 138.79 228.33 138.62 227.83 138.62Z" />
			<path id="Layer" fill-rule="evenodd" class="shp0" d="M476.12 120.78L637.6 120.78L637.6 159.23L476.12 159.23L476.12 120.78Z" />
			<path id="Layer" fill-rule="evenodd" class="shp2" d="M476.12 120.78L637.6 120.78L637.6 159.23L476.12 159.23L476.12 120.78Z" />
			<path id="Layer" fill-rule="evenodd" class="shp3" d="M501.53 135.34L504.62 143.06L507.71 135.34L509.34 135.34L509.34 144.81L508.09 144.81L508.09 141.12L508.2 137.13L505.09 144.81L504.14 144.81L501.03 137.15L501.15 141.12L501.15 144.81L499.9 144.81L499.9 135.34L501.53 135.34ZM515.71 144.1C515.24 144.65 514.55 144.93 513.65 144.93C512.89 144.93 512.31 144.72 511.91 144.29C511.53 143.85 511.33 143.21 511.33 142.35L511.33 137.76L512.54 137.76L512.54 142.31C512.54 143.38 512.97 143.91 513.83 143.91C514.75 143.91 515.36 143.57 515.66 142.88L515.66 137.76L516.88 137.76L516.88 144.81L515.73 144.81L515.71 144.1ZM520.01 144.81L518.81 144.81L518.81 134.81L520.01 134.81L520.01 144.81ZM523.57 136.06L523.57 137.76L524.89 137.76L524.89 138.7L523.57 138.7L523.57 143.06C523.57 143.34 523.63 143.55 523.74 143.7C523.86 143.84 524.06 143.91 524.34 143.91C524.48 143.91 524.68 143.89 524.92 143.84L524.92 144.81C524.6 144.89 524.3 144.93 523.99 144.93C523.45 144.93 523.05 144.77 522.78 144.45C522.51 144.12 522.37 143.66 522.37 143.06L522.37 138.7L521.09 138.7L521.09 137.76L522.37 137.76L522.37 136.06L523.57 136.06ZM527.6 144.81L526.4 144.81L526.4 137.76L527.6 137.76L527.6 144.81ZM526.3 135.9C526.3 135.7 526.36 135.53 526.47 135.4C526.6 135.26 526.78 135.2 527 135.2C527.24 135.2 527.42 135.26 527.54 135.4C527.66 135.53 527.72 135.7 527.72 135.9C527.72 136.1 527.66 136.26 527.54 136.4C527.42 136.52 527.24 136.59 527 136.59C526.78 136.59 526.6 136.52 526.47 136.4C526.36 136.26 526.3 136.1 526.3 135.9ZM532.04 141.27L528.85 141.27L528.85 140.29L532.04 140.29L532.04 141.27ZM534.34 137.76L534.37 138.54C534.88 137.94 535.58 137.63 536.46 137.63C537.44 137.63 538.11 138.01 538.46 138.76C538.7 138.43 539.01 138.15 539.38 137.95C539.76 137.74 540.2 137.63 540.71 137.63C542.25 137.63 543.04 138.45 543.07 140.09L543.07 144.81L541.87 144.81L541.87 140.16C541.87 139.65 541.75 139.27 541.53 139.02C541.3 138.77 540.91 138.65 540.35 138.65C539.92 138.65 539.55 138.78 539.24 139.06C538.95 139.33 538.78 139.69 538.73 140.13L538.73 144.81L537.53 144.81L537.53 140.2C537.53 139.16 537.03 138.65 536.03 138.65C535.23 138.65 534.69 138.99 534.4 139.66L534.4 144.81L533.2 144.81L533.2 137.76L534.34 137.76ZM544.57 141.23C544.57 140.53 544.7 139.9 544.97 139.35C545.24 138.8 545.62 138.38 546.1 138.09C546.59 137.78 547.14 137.63 547.75 137.63C548.71 137.63 549.49 137.97 550.08 138.63C550.68 139.29 550.97 140.17 550.97 141.27L550.97 141.37C550.97 142.04 550.84 142.66 550.58 143.21C550.32 143.75 549.95 144.18 549.46 144.48C548.97 144.78 548.41 144.93 547.77 144.93C546.82 144.93 546.05 144.6 545.46 143.95C544.86 143.28 544.57 142.4 544.57 141.31L544.57 141.23ZM545.77 141.37C545.77 142.15 545.95 142.77 546.32 143.24C546.68 143.71 547.17 143.95 547.77 143.95C548.38 143.95 548.87 143.71 549.22 143.23C549.59 142.75 549.77 142.08 549.77 141.23C549.77 140.45 549.59 139.82 549.22 139.34C548.86 138.86 548.37 138.62 547.75 138.62C547.16 138.62 546.68 138.86 546.32 139.34C545.95 139.81 545.77 140.48 545.77 141.37ZM553.62 137.76L553.67 138.65C554.2 137.97 554.9 137.63 555.78 137.63C557.27 137.63 558.02 138.47 558.03 140.15L558.03 144.81L556.82 144.81L556.82 140.15C556.81 139.64 556.69 139.26 556.46 139.02C556.25 138.77 555.89 138.65 555.4 138.65C555.02 138.65 554.67 138.75 554.37 138.96C554.08 139.17 553.85 139.45 553.68 139.79L553.68 144.81L552.48 144.81L552.48 137.76L553.62 137.76ZM561.15 144.81L559.94 144.81L559.94 137.76L561.15 137.76L561.15 144.81ZM559.85 135.9C559.85 135.7 559.91 135.53 560.02 135.4C560.15 135.26 560.32 135.2 560.55 135.2C560.79 135.2 560.97 135.26 561.08 135.4C561.21 135.53 561.27 135.7 561.27 135.9C561.27 136.1 561.21 136.26 561.08 136.4C560.97 136.52 560.79 136.59 560.55 136.59C560.32 136.59 560.15 136.52 560.02 136.4C559.91 136.26 559.85 136.1 559.85 135.9ZM564.71 136.06L564.71 137.76L566.02 137.76L566.02 138.7L564.71 138.7L564.71 143.06C564.71 143.34 564.77 143.55 564.88 143.7C565 143.84 565.19 143.91 565.47 143.91C565.62 143.91 565.81 143.89 566.05 143.84L566.05 144.81C565.74 144.89 565.43 144.93 565.13 144.93C564.59 144.93 564.18 144.77 563.91 144.45C563.64 144.12 563.51 143.66 563.51 143.06L563.51 138.7L562.22 138.7L562.22 137.76L563.51 137.76L563.51 136.06L564.71 136.06ZM566.98 141.23C566.98 140.53 567.11 139.9 567.39 139.35C567.66 138.8 568.03 138.38 568.51 138.09C569 137.78 569.55 137.63 570.17 137.63C571.13 137.63 571.9 137.97 572.5 138.63C573.09 139.29 573.39 140.17 573.39 141.27L573.39 141.37C573.39 142.04 573.26 142.66 573 143.21C572.73 143.75 572.36 144.18 571.87 144.48C571.38 144.78 570.82 144.93 570.18 144.93C569.23 144.93 568.46 144.6 567.87 143.95C567.28 143.28 566.98 142.4 566.98 141.31L566.98 141.23ZM568.18 141.37C568.18 142.15 568.36 142.77 568.73 143.24C569.09 143.71 569.58 143.95 570.18 143.95C570.8 143.95 571.28 143.71 571.64 143.23C572 142.75 572.18 142.08 572.18 141.23C572.18 140.45 572 139.82 571.64 139.34C571.27 138.86 570.78 138.62 570.17 138.62C569.57 138.62 569.09 138.86 568.73 139.34C568.36 139.81 568.18 140.48 568.18 141.37ZM578.3 138.84C578.12 138.82 577.92 138.81 577.71 138.81C576.91 138.81 576.38 139.14 576.1 139.81L576.1 144.81L574.89 144.81L574.89 137.76L576.07 137.76L576.1 138.57C576.48 137.95 577.04 137.63 577.77 137.63C578 137.63 578.17 137.66 578.3 137.73L578.3 138.84ZM586.81 142.93C586.81 142.61 586.69 142.36 586.44 142.18C586.2 142 585.77 141.85 585.16 141.73C584.55 141.59 584.07 141.44 583.7 141.26C583.35 141.07 583.08 140.85 582.91 140.6C582.74 140.34 582.66 140.04 582.66 139.7C582.66 139.12 582.9 138.64 583.39 138.24C583.88 137.84 584.5 137.63 585.27 137.63C586.06 137.63 586.7 137.84 587.2 138.26C587.7 138.66 587.95 139.19 587.95 139.84L586.73 139.84C586.73 139.5 586.59 139.22 586.31 138.98C586.03 138.74 585.68 138.62 585.27 138.62C584.83 138.62 584.48 138.72 584.23 138.91C583.98 139.1 583.86 139.35 583.86 139.66C583.86 139.95 583.97 140.16 584.2 140.32C584.43 140.47 584.85 140.61 585.45 140.74C586.06 140.88 586.54 141.04 586.91 141.23C587.28 141.4 587.56 141.63 587.73 141.9C587.92 142.16 588.02 142.48 588.02 142.85C588.02 143.48 587.76 143.98 587.25 144.37C586.75 144.74 586.1 144.93 585.3 144.93C584.73 144.93 584.23 144.83 583.8 144.63C583.37 144.44 583.03 144.16 582.78 143.81C582.54 143.44 582.42 143.05 582.42 142.63L583.62 142.63C583.65 143.04 583.81 143.36 584.11 143.6C584.41 143.83 584.81 143.95 585.3 143.95C585.75 143.95 586.12 143.86 586.39 143.68C586.67 143.49 586.81 143.24 586.81 142.93ZM592.5 144.93C591.55 144.93 590.77 144.62 590.17 143.99C589.58 143.37 589.28 142.53 589.28 141.48L589.28 141.26C589.28 140.56 589.41 139.94 589.67 139.4C589.94 138.85 590.31 138.41 590.79 138.1C591.27 137.79 591.79 137.63 592.36 137.63C593.27 137.63 593.98 137.94 594.48 138.54C594.99 139.14 595.25 140.01 595.25 141.13L595.25 141.63L590.48 141.63C590.49 142.32 590.69 142.88 591.08 143.31C591.47 143.73 591.97 143.95 592.56 143.95C592.99 143.95 593.35 143.86 593.64 143.7C593.94 143.52 594.2 143.29 594.42 143.01L595.15 143.57C594.57 144.48 593.68 144.93 592.5 144.93ZM592.36 138.62C591.87 138.62 591.46 138.79 591.12 139.15C590.8 139.5 590.6 140 590.51 140.63L594.04 140.63L594.04 140.56C594.01 139.94 593.85 139.47 593.54 139.13C593.25 138.79 592.86 138.62 592.36 138.62ZM598.28 136.06L598.28 137.76L599.59 137.76L599.59 138.7L598.28 138.7L598.28 143.06C598.28 143.34 598.33 143.55 598.45 143.7C598.56 143.84 598.76 143.91 599.04 143.91C599.19 143.91 599.38 143.89 599.62 143.84L599.62 144.81C599.31 144.89 599 144.93 598.7 144.93C598.16 144.93 597.75 144.77 597.48 144.45C597.21 144.12 597.07 143.66 597.07 143.06L597.07 138.7L595.79 138.7L595.79 137.76L597.07 137.76L597.07 136.06L598.28 136.06ZM605.35 144.1C604.88 144.65 604.19 144.93 603.29 144.93C602.53 144.93 601.95 144.72 601.55 144.29C601.17 143.85 600.97 143.21 600.97 142.35L600.97 137.76L602.18 137.76L602.18 142.31C602.18 143.38 602.61 143.91 603.47 143.91C604.39 143.91 605 143.57 605.3 142.88L605.3 137.76L606.52 137.76L606.52 144.81L605.36 144.81L605.35 144.1ZM614.29 141.37C614.29 142.44 614.05 143.31 613.56 143.96C613.07 144.61 612.4 144.93 611.56 144.93C610.7 144.93 610.03 144.66 609.54 144.12L609.54 147.51L608.34 147.51L608.34 137.76L609.45 137.76L609.49 138.54C609.99 137.94 610.68 137.63 611.54 137.63C612.38 137.63 613.05 137.95 613.54 138.59C614.04 139.22 614.29 140.11 614.29 141.26L614.29 141.37ZM613.09 141.23C613.09 140.44 612.92 139.81 612.57 139.35C612.24 138.88 611.77 138.65 611.18 138.65C610.45 138.65 609.9 138.97 609.54 139.62L609.54 142.99C609.9 143.63 610.46 143.95 611.2 143.95C611.78 143.95 612.24 143.72 612.57 143.27C612.92 142.82 613.09 142.13 613.09 141.23Z" />
			<path id="Layer" fill-rule="evenodd" class="shp0" d="M193.14 231.23L354.62 231.23L354.62 269.69L193.14 269.69L193.14 231.23Z" />
			<path id="Layer" fill-rule="evenodd" class="shp2" d="M193.14 231.23L354.62 231.23L354.62 269.69L193.14 269.69L193.14 231.23Z" />
			<path id="Layer" fill-rule="evenodd" class="shp3" d="M212.45 251.07L208.47 251.07L208.47 255.26L207.22 255.26L207.22 245.79L213.09 245.79L213.09 246.81L208.47 246.81L208.47 250.06L212.45 250.06L212.45 251.07ZM213.95 251.68C213.95 250.99 214.08 250.36 214.36 249.81C214.63 249.26 215 248.83 215.48 248.54C215.97 248.24 216.52 248.09 217.14 248.09C218.09 248.09 218.87 248.42 219.46 249.09C220.06 249.75 220.36 250.63 220.36 251.73L220.36 251.82C220.36 252.5 220.23 253.12 219.96 253.67C219.7 254.21 219.33 254.63 218.84 254.93C218.35 255.24 217.79 255.39 217.15 255.39C216.2 255.39 215.43 255.06 214.84 254.4C214.25 253.74 213.95 252.86 213.95 251.76L213.95 251.68ZM215.15 251.82C215.15 252.61 215.33 253.23 215.7 253.7C216.06 254.17 216.55 254.4 217.15 254.4C217.77 254.4 218.25 254.16 218.61 253.68C218.97 253.2 219.15 252.54 219.15 251.68C219.15 250.9 218.97 250.27 218.61 249.79C218.24 249.31 217.75 249.07 217.14 249.07C216.54 249.07 216.06 249.31 215.7 249.79C215.33 250.26 215.15 250.94 215.15 251.82ZM223.18 255.26L221.97 255.26L221.97 245.26L223.18 245.26L223.18 255.26ZM224.82 251.68C224.82 250.6 225.07 249.73 225.58 249.07C226.09 248.42 226.76 248.09 227.58 248.09C228.41 248.09 229.07 248.37 229.55 248.93L229.55 245.26L230.75 245.26L230.75 255.26L229.64 255.26L229.58 254.51C229.1 255.1 228.44 255.39 227.58 255.39C226.76 255.39 226.09 255.05 225.58 254.39C225.07 253.72 224.82 252.85 224.82 251.78L224.82 251.68ZM226.02 251.82C226.02 252.62 226.18 253.24 226.5 253.7C226.84 254.15 227.3 254.37 227.88 254.37C228.64 254.37 229.2 254.03 229.55 253.34L229.55 250.11C229.19 249.44 228.63 249.11 227.89 249.11C227.3 249.11 226.84 249.33 226.5 249.79C226.18 250.25 226.02 250.93 226.02 251.82ZM236.97 255.26C236.9 255.13 236.84 254.88 236.8 254.53C236.24 255.1 235.57 255.39 234.79 255.39C234.1 255.39 233.53 255.19 233.08 254.81C232.63 254.41 232.41 253.91 232.41 253.31C232.41 252.58 232.69 252.01 233.24 251.61C233.8 251.2 234.59 251 235.6 251L236.77 251L236.77 250.43C236.77 250.02 236.65 249.68 236.4 249.43C236.15 249.18 235.78 249.06 235.29 249.06C234.86 249.06 234.5 249.17 234.21 249.39C233.92 249.61 233.77 249.87 233.77 250.17L232.57 250.17C232.57 249.82 232.69 249.49 232.93 249.17C233.18 248.83 233.51 248.57 233.94 248.39C234.38 248.19 234.85 248.09 235.36 248.09C236.18 248.09 236.81 248.29 237.27 248.7C237.73 249.11 237.97 249.66 237.99 250.37L237.99 253.62C237.99 254.27 238.07 254.78 238.22 255.15L238.22 255.26L236.97 255.26ZM234.97 254.34C235.35 254.34 235.7 254.25 236.04 254.06C236.38 253.86 236.62 253.61 236.77 253.29L236.77 251.84L235.83 251.84C234.35 251.84 233.61 252.27 233.61 253.14C233.61 253.51 233.74 253.81 233.99 254.03C234.25 254.24 234.58 254.34 234.97 254.34ZM245.83 251.82C245.83 252.9 245.58 253.76 245.08 254.42C244.59 255.06 243.93 255.39 243.1 255.39C242.21 255.39 241.53 255.07 241.04 254.45L240.97 255.26L239.86 255.26L239.86 245.26L241.07 245.26L241.07 249C241.56 248.39 242.23 248.09 243.08 248.09C243.94 248.09 244.61 248.41 245.1 249.06C245.59 249.7 245.83 250.59 245.83 251.72L245.83 251.82ZM244.63 251.68C244.63 250.86 244.47 250.23 244.14 249.78C243.83 249.33 243.38 249.11 242.79 249.11C241.99 249.11 241.42 249.48 241.07 250.22L241.07 253.26C241.44 254 242.02 254.37 242.8 254.37C243.37 254.37 243.82 254.15 244.14 253.7C244.47 253.25 244.63 252.58 244.63 251.68ZM248.65 255.26L247.45 255.26L247.45 245.26L248.65 245.26L248.65 255.26ZM253.5 255.39C252.55 255.39 251.77 255.07 251.17 254.45C250.58 253.82 250.28 252.99 250.28 251.93L250.28 251.72C250.28 251.02 250.41 250.4 250.67 249.86C250.94 249.3 251.32 248.87 251.79 248.56C252.27 248.25 252.79 248.09 253.36 248.09C254.27 248.09 254.98 248.39 255.48 249C255.99 249.6 256.25 250.47 256.25 251.59L256.25 252.09L251.48 252.09C251.49 252.78 251.69 253.33 252.08 253.76C252.47 254.19 252.97 254.4 253.56 254.4C253.99 254.4 254.35 254.32 254.64 254.15C254.94 253.98 255.2 253.75 255.42 253.47L256.15 254.03C255.57 254.93 254.68 255.39 253.5 255.39ZM253.36 249.07C252.87 249.07 252.46 249.25 252.12 249.61C251.8 249.96 251.6 250.45 251.51 251.09L255.04 251.09L255.04 251.01C255.01 250.4 254.85 249.92 254.54 249.59C254.25 249.25 253.86 249.07 253.36 249.07ZM260.15 251.73L256.96 251.73L256.96 250.75L260.15 250.75L260.15 251.73ZM265.42 253.39C265.42 253.06 265.3 252.81 265.05 252.64C264.81 252.46 264.38 252.31 263.77 252.18C263.16 252.05 262.68 251.89 262.31 251.72C261.96 251.53 261.69 251.31 261.52 251.06C261.35 250.8 261.27 250.5 261.27 250.15C261.27 249.58 261.51 249.1 262 248.7C262.49 248.29 263.12 248.09 263.88 248.09C264.67 248.09 265.31 248.3 265.81 248.72C266.31 249.12 266.56 249.65 266.56 250.29L265.34 250.29C265.34 249.96 265.2 249.67 264.92 249.43C264.64 249.19 264.29 249.07 263.88 249.07C263.44 249.07 263.09 249.17 262.84 249.37C262.59 249.56 262.47 249.81 262.47 250.12C262.47 250.4 262.58 250.62 262.81 250.78C263.04 250.92 263.46 251.06 264.06 251.2C264.67 251.33 265.15 251.5 265.52 251.68C265.89 251.86 266.17 252.08 266.34 252.36C266.53 252.62 266.63 252.93 266.63 253.31C266.63 253.93 266.37 254.44 265.86 254.82C265.36 255.2 264.71 255.39 263.91 255.39C263.34 255.39 262.84 255.29 262.41 255.09C261.98 254.89 261.64 254.62 261.39 254.26C261.15 253.9 261.03 253.51 261.03 253.09L262.24 253.09C262.26 253.5 262.42 253.82 262.72 254.06C263.02 254.29 263.42 254.4 263.91 254.4C264.37 254.4 264.73 254.31 265 254.14C265.28 253.95 265.42 253.7 265.42 253.39ZM271.01 254.4C271.44 254.4 271.82 254.27 272.14 254.01C272.46 253.75 272.64 253.43 272.67 253.04L273.81 253.04C273.79 253.45 273.65 253.83 273.39 254.2C273.14 254.56 272.8 254.86 272.37 255.07C271.95 255.28 271.49 255.39 271.01 255.39C270.06 255.39 269.29 255.07 268.72 254.43C268.15 253.79 267.87 252.91 267.87 251.81L267.87 251.61C267.87 250.92 268 250.31 268.25 249.78C268.51 249.25 268.87 248.83 269.34 248.54C269.81 248.24 270.37 248.09 271.01 248.09C271.8 248.09 272.45 248.33 272.97 248.81C273.5 249.28 273.78 249.89 273.81 250.64L272.67 250.64C272.64 250.19 272.47 249.82 272.15 249.53C271.84 249.23 271.46 249.07 271.01 249.07C270.4 249.07 269.92 249.3 269.58 249.75C269.24 250.18 269.08 250.82 269.08 251.65L269.08 251.87C269.08 252.68 269.24 253.31 269.58 253.75C269.92 254.18 270.4 254.4 271.01 254.4ZM278.57 249.29C278.39 249.27 278.19 249.26 277.97 249.26C277.18 249.26 276.65 249.6 276.37 250.26L276.37 255.26L275.16 255.26L275.16 248.22L276.33 248.22L276.37 249.03C276.75 248.4 277.31 248.09 278.04 248.09C278.27 248.09 278.44 248.12 278.57 248.18L278.57 249.29ZM282.47 255.39C281.52 255.39 280.75 255.07 280.14 254.45C279.55 253.82 279.25 252.99 279.25 251.93L279.25 251.72C279.25 251.02 279.38 250.4 279.64 249.86C279.91 249.3 280.29 248.87 280.77 248.56C281.25 248.25 281.77 248.09 282.33 248.09C283.25 248.09 283.95 248.39 284.45 249C284.97 249.6 285.22 250.47 285.22 251.59L285.22 252.09L280.45 252.09C280.47 252.78 280.66 253.33 281.05 253.76C281.44 254.19 281.94 254.4 282.53 254.4C282.96 254.4 283.32 254.32 283.61 254.15C283.91 253.98 284.17 253.75 284.39 253.47L285.13 254.03C284.54 254.93 283.66 255.39 282.47 255.39ZM282.33 249.07C281.84 249.07 281.43 249.25 281.1 249.61C280.77 249.96 280.57 250.45 280.49 251.09L284.02 251.09L284.02 251.01C283.99 250.4 283.82 249.92 283.52 249.59C283.23 249.25 282.83 249.07 282.33 249.07ZM289.53 255.39C288.58 255.39 287.81 255.07 287.2 254.45C286.61 253.82 286.31 252.99 286.31 251.93L286.31 251.72C286.31 251.02 286.44 250.4 286.7 249.86C286.97 249.3 287.35 248.87 287.83 248.56C288.31 248.25 288.83 248.09 289.39 248.09C290.31 248.09 291.02 248.39 291.52 249C292.03 249.6 292.28 250.47 292.28 251.59L292.28 252.09L287.52 252.09C287.53 252.78 287.72 253.33 288.11 253.76C288.51 254.19 289 254.4 289.59 254.4C290.02 254.4 290.38 254.32 290.67 254.15C290.97 253.98 291.23 253.75 291.45 253.47L292.19 254.03C291.6 254.93 290.72 255.39 289.53 255.39ZM289.39 249.07C288.9 249.07 288.49 249.25 288.16 249.61C287.83 249.96 287.63 250.45 287.55 251.09L291.08 251.09L291.08 251.01C291.05 250.4 290.88 249.92 290.58 249.59C290.29 249.25 289.89 249.07 289.39 249.07ZM294.81 248.22L294.86 249.11C295.39 248.43 296.09 248.09 296.97 248.09C298.46 248.09 299.21 248.93 299.22 250.61L299.22 255.26L298.01 255.26L298.01 250.61C298 250.1 297.88 249.72 297.66 249.48C297.44 249.23 297.08 249.11 296.59 249.11C296.21 249.11 295.86 249.21 295.56 249.42C295.27 249.63 295.04 249.9 294.87 250.25L294.87 255.26L293.67 255.26L293.67 248.22L294.81 248.22ZM304.04 251.68C304.04 250.6 304.3 249.73 304.81 249.07C305.32 248.42 305.99 248.09 306.81 248.09C307.64 248.09 308.3 248.37 308.78 248.93L308.78 245.26L309.98 245.26L309.98 255.26L308.87 255.26L308.81 254.51C308.33 255.1 307.66 255.39 306.81 255.39C305.99 255.39 305.32 255.05 304.81 254.39C304.3 253.72 304.04 252.85 304.04 251.78L304.04 251.68ZM305.25 251.82C305.25 252.62 305.41 253.24 305.73 253.7C306.06 254.15 306.52 254.37 307.11 254.37C307.87 254.37 308.42 254.03 308.78 253.34L308.78 250.11C308.41 249.44 307.86 249.11 307.12 249.11C306.53 249.11 306.06 249.33 305.73 249.79C305.41 250.25 305.25 250.93 305.25 251.82ZM314.76 255.39C313.81 255.39 313.04 255.07 312.43 254.45C311.84 253.82 311.54 252.99 311.54 251.93L311.54 251.72C311.54 251.02 311.67 250.4 311.93 249.86C312.21 249.3 312.58 248.87 313.06 248.56C313.54 248.25 314.06 248.09 314.62 248.09C315.54 248.09 316.25 248.39 316.75 249C317.26 249.6 317.51 250.47 317.51 251.59L317.51 252.09L312.75 252.09C312.76 252.78 312.96 253.33 313.34 253.76C313.74 254.19 314.23 254.4 314.83 254.4C315.25 254.4 315.61 254.32 315.9 254.15C316.21 253.98 316.47 253.75 316.68 253.47L317.42 254.03C316.84 254.93 315.95 255.39 314.76 255.39ZM314.62 249.07C314.13 249.07 313.72 249.25 313.39 249.61C313.06 249.96 312.86 250.45 312.78 251.09L316.31 251.09L316.31 251.01C316.28 250.4 316.11 249.92 315.81 249.59C315.52 249.25 315.12 249.07 314.62 249.07ZM321.15 253.62L322.9 248.22L324.11 248.22L321.6 255.26L320.68 255.26L318.13 248.22L319.35 248.22L321.15 253.62ZM326.59 255.26L325.38 255.26L325.38 248.22L326.59 248.22L326.59 255.26ZM325.29 246.36C325.29 246.16 325.35 245.99 325.46 245.86C325.59 245.72 325.76 245.65 325.99 245.65C326.23 245.65 326.41 245.72 326.52 245.86C326.65 245.99 326.71 246.16 326.71 246.36C326.71 246.55 326.65 246.72 326.52 246.86C326.41 246.98 326.23 247.04 325.99 247.04C325.76 247.04 325.59 246.98 325.46 246.86C325.35 246.72 325.29 246.55 325.29 246.36ZM331.34 254.4C331.76 254.4 332.14 254.27 332.46 254.01C332.78 253.75 332.96 253.43 332.99 253.04L334.13 253.04C334.11 253.45 333.97 253.83 333.71 254.2C333.46 254.56 333.12 254.86 332.69 255.07C332.27 255.28 331.81 255.39 331.34 255.39C330.38 255.39 329.61 255.07 329.04 254.43C328.48 253.79 328.19 252.91 328.19 251.81L328.19 251.61C328.19 250.92 328.32 250.31 328.57 249.78C328.83 249.25 329.19 248.83 329.66 248.54C330.13 248.24 330.69 248.09 331.34 248.09C332.12 248.09 332.77 248.33 333.29 248.81C333.82 249.28 334.1 249.89 334.13 250.64L332.99 250.64C332.96 250.19 332.79 249.82 332.48 249.53C332.16 249.23 331.78 249.07 331.34 249.07C330.72 249.07 330.24 249.3 329.9 249.75C329.56 250.18 329.4 250.82 329.4 251.65L329.4 251.87C329.4 252.68 329.56 253.31 329.9 253.75C330.24 254.18 330.72 254.4 331.34 254.4ZM338.41 255.39C337.46 255.39 336.68 255.07 336.08 254.45C335.48 253.82 335.19 252.99 335.19 251.93L335.19 251.72C335.19 251.02 335.32 250.4 335.58 249.86C335.85 249.3 336.22 248.87 336.7 248.56C337.18 248.25 337.7 248.09 338.27 248.09C339.18 248.09 339.89 248.39 340.39 249C340.9 249.6 341.16 250.47 341.16 251.59L341.16 252.09L336.39 252.09C336.4 252.78 336.6 253.33 336.98 253.76C337.38 254.19 337.87 254.4 338.47 254.4C338.9 254.4 339.25 254.32 339.55 254.15C339.85 253.98 340.11 253.75 340.33 253.47L341.06 254.03C340.48 254.93 339.59 255.39 338.41 255.39ZM338.27 249.07C337.78 249.07 337.36 249.25 337.03 249.61C336.71 249.96 336.5 250.45 336.42 251.09L339.95 251.09L339.95 251.01C339.92 250.4 339.75 249.92 339.45 249.59C339.16 249.25 338.77 249.07 338.27 249.07Z" />
			<path id="Layer" fill-rule="evenodd" class="shp0" d="M15.66 231.23L177.14 231.23L177.14 269.69L15.66 269.69L15.66 231.23Z" />
			<path id="Layer" fill-rule="evenodd" class="shp2" d="M15.66 231.23L177.14 231.23L177.14 269.69L15.66 269.69L15.66 231.23Z" />
			<path id="Layer" fill-rule="evenodd" class="shp3" d="M41.76 255.26L41.76 245.79L44.44 245.79C45.27 245.79 45.99 245.98 46.61 246.34C47.25 246.7 47.74 247.23 48.08 247.9C48.44 248.57 48.61 249.33 48.61 250.2L48.61 250.81C48.61 251.7 48.44 252.49 48.1 253.17C47.76 253.83 47.26 254.35 46.61 254.72C45.98 255.07 45.23 255.25 44.38 255.26L41.76 255.26ZM43.01 246.81L43.01 254.25L44.32 254.25C45.29 254.25 46.04 253.95 46.57 253.36C47.11 252.75 47.38 251.89 47.38 250.78L47.38 250.23C47.38 249.16 47.13 248.32 46.61 247.73C46.11 247.13 45.4 246.82 44.47 246.81L43.01 246.81ZM54.67 254.56C54.2 255.11 53.51 255.39 52.6 255.39C51.84 255.39 51.27 255.17 50.87 254.75C50.49 254.31 50.29 253.66 50.29 252.81L50.29 248.22L51.5 248.22L51.5 252.76C51.5 253.83 51.93 254.37 52.79 254.37C53.71 254.37 54.32 254.03 54.62 253.34L54.62 248.22L55.84 248.22L55.84 255.26L54.68 255.26L54.67 254.56ZM62.01 255.26C61.94 255.13 61.88 254.88 61.84 254.53C61.28 255.1 60.61 255.39 59.83 255.39C59.14 255.39 58.57 255.19 58.12 254.81C57.68 254.41 57.45 253.91 57.45 253.31C57.45 252.58 57.73 252.01 58.28 251.61C58.84 251.2 59.63 251 60.64 251L61.81 251L61.81 250.43C61.81 250.02 61.69 249.68 61.44 249.43C61.19 249.18 60.82 249.06 60.33 249.06C59.9 249.06 59.54 249.17 59.25 249.39C58.96 249.61 58.81 249.87 58.81 250.17L57.61 250.17C57.61 249.82 57.73 249.49 57.97 249.17C58.22 248.83 58.56 248.57 58.98 248.39C59.42 248.19 59.89 248.09 60.41 248.09C61.22 248.09 61.85 248.29 62.31 248.7C62.77 249.11 63.01 249.66 63.03 250.37L63.03 253.62C63.03 254.27 63.11 254.78 63.26 255.15L63.26 255.26L62.01 255.26ZM60.01 254.34C60.39 254.34 60.74 254.25 61.08 254.06C61.42 253.86 61.67 253.61 61.81 253.29L61.81 251.84L60.87 251.84C59.39 251.84 58.66 252.27 58.66 253.14C58.66 253.51 58.78 253.81 59.03 254.03C59.29 254.24 59.62 254.34 60.01 254.34ZM66.22 255.26L65.01 255.26L65.01 245.26L66.22 245.26L66.22 255.26ZM70.66 251.73L67.47 251.73L67.47 250.75L70.66 250.75L70.66 251.73ZM75.93 253.39C75.93 253.06 75.8 252.81 75.55 252.64C75.31 252.46 74.88 252.31 74.27 252.18C73.67 252.05 73.18 251.89 72.82 251.72C72.46 251.53 72.2 251.31 72.02 251.06C71.85 250.8 71.77 250.5 71.77 250.15C71.77 249.58 72.01 249.1 72.5 248.7C72.99 248.29 73.62 248.09 74.38 248.09C75.17 248.09 75.82 248.3 76.32 248.72C76.82 249.12 77.07 249.65 77.07 250.29L75.85 250.29C75.85 249.96 75.71 249.67 75.43 249.43C75.14 249.19 74.8 249.07 74.38 249.07C73.94 249.07 73.6 249.17 73.35 249.37C73.1 249.56 72.97 249.81 72.97 250.12C72.97 250.4 73.09 250.62 73.32 250.78C73.55 250.92 73.96 251.06 74.57 251.2C75.17 251.33 75.66 251.5 76.02 251.68C76.39 251.86 76.67 252.08 76.85 252.36C77.04 252.62 77.13 252.93 77.13 253.31C77.13 253.93 76.87 254.44 76.36 254.82C75.86 255.2 75.21 255.39 74.41 255.39C73.85 255.39 73.35 255.29 72.91 255.09C72.48 254.89 72.14 254.62 71.89 254.26C71.66 253.9 71.54 253.51 71.54 253.09L72.74 253.09C72.76 253.5 72.92 253.82 73.22 254.06C73.52 254.29 73.92 254.4 74.41 254.4C74.87 254.4 75.23 254.31 75.5 254.14C75.79 253.95 75.93 253.7 75.93 253.39ZM81.52 254.4C81.94 254.4 82.32 254.27 82.64 254.01C82.96 253.75 83.14 253.43 83.17 253.04L84.31 253.04C84.29 253.45 84.15 253.83 83.89 254.2C83.64 254.56 83.3 254.86 82.88 255.07C82.45 255.28 82 255.39 81.52 255.39C80.56 255.39 79.79 255.07 79.22 254.43C78.66 253.79 78.38 252.91 78.38 251.81L78.38 251.61C78.38 250.92 78.5 250.31 78.75 249.78C79.01 249.25 79.38 248.83 79.85 248.54C80.31 248.24 80.87 248.09 81.52 248.09C82.3 248.09 82.95 248.33 83.47 248.81C84 249.28 84.28 249.89 84.31 250.64L83.17 250.64C83.14 250.19 82.97 249.82 82.66 249.53C82.35 249.23 81.96 249.07 81.52 249.07C80.9 249.07 80.42 249.3 80.08 249.75C79.75 250.18 79.58 250.82 79.58 251.65L79.58 251.87C79.58 252.68 79.75 253.31 80.08 253.75C80.42 254.18 80.9 254.4 81.52 254.4ZM89.07 249.29C88.89 249.27 88.7 249.26 88.48 249.26C87.69 249.26 87.15 249.6 86.87 250.26L86.87 255.26L85.67 255.26L85.67 248.22L86.84 248.22L86.87 249.03C87.25 248.4 87.81 248.09 88.54 248.09C88.77 248.09 88.95 248.12 89.07 248.18L89.07 249.29ZM92.97 255.39C92.03 255.39 91.25 255.07 90.65 254.45C90.05 253.82 89.75 252.99 89.75 251.93L89.75 251.72C89.75 251.02 89.88 250.4 90.15 249.86C90.42 249.3 90.79 248.87 91.27 248.56C91.75 248.25 92.27 248.09 92.83 248.09C93.75 248.09 94.46 248.39 94.96 249C95.47 249.6 95.72 250.47 95.72 251.59L95.72 252.09L90.96 252.09C90.97 252.78 91.17 253.33 91.55 253.76C91.95 254.19 92.44 254.4 93.04 254.4C93.46 254.4 93.82 254.32 94.11 254.15C94.42 253.98 94.68 253.75 94.9 253.47L95.63 254.03C95.05 254.93 94.16 255.39 92.97 255.39ZM92.83 249.07C92.34 249.07 91.93 249.25 91.6 249.61C91.28 249.96 91.07 250.45 90.99 251.09L94.52 251.09L94.52 251.01C94.49 250.4 94.32 249.92 94.02 249.59C93.73 249.25 93.33 249.07 92.83 249.07ZM100.03 255.39C99.09 255.39 98.31 255.07 97.71 254.45C97.11 253.82 96.82 252.99 96.82 251.93L96.82 251.72C96.82 251.02 96.95 250.4 97.21 249.86C97.48 249.3 97.85 248.87 98.33 248.56C98.81 248.25 99.33 248.09 99.89 248.09C100.81 248.09 101.52 248.39 102.02 249C102.53 249.6 102.78 250.47 102.78 251.59L102.78 252.09L98.02 252.09C98.03 252.78 98.23 253.33 98.61 253.76C99.01 254.19 99.5 254.4 100.1 254.4C100.52 254.4 100.88 254.32 101.18 254.15C101.48 253.98 101.74 253.75 101.96 253.47L102.69 254.03C102.11 254.93 101.22 255.39 100.03 255.39ZM99.89 249.07C99.4 249.07 98.99 249.25 98.66 249.61C98.34 249.96 98.13 250.45 98.05 251.09L101.58 251.09L101.58 251.01C101.55 250.4 101.38 249.92 101.08 249.59C100.79 249.25 100.39 249.07 99.89 249.07ZM105.31 248.22L105.36 249.11C105.89 248.43 106.6 248.09 107.47 248.09C108.96 248.09 109.71 248.93 109.72 250.61L109.72 255.26L108.52 255.26L108.52 250.61C108.51 250.1 108.39 249.72 108.16 249.48C107.94 249.23 107.59 249.11 107.1 249.11C106.71 249.11 106.37 249.21 106.06 249.42C105.77 249.63 105.54 249.9 105.38 250.25L105.38 255.26L104.17 255.26L104.17 248.22L105.31 248.22ZM114.55 251.68C114.55 250.6 114.8 249.73 115.31 249.07C115.82 248.42 116.49 248.09 117.31 248.09C118.14 248.09 118.8 248.37 119.28 248.93L119.28 245.26L120.48 245.26L120.48 255.26L119.37 255.26L119.31 254.51C118.83 255.1 118.17 255.39 117.31 255.39C116.49 255.39 115.82 255.05 115.31 254.39C114.8 253.72 114.55 252.85 114.55 251.78L114.55 251.68ZM115.75 251.82C115.75 252.62 115.91 253.24 116.23 253.7C116.57 254.15 117.02 254.37 117.61 254.37C118.37 254.37 118.93 254.03 119.28 253.34L119.28 250.11C118.92 249.44 118.36 249.11 117.62 249.11C117.03 249.11 116.57 249.33 116.23 249.79C115.91 250.25 115.75 250.93 115.75 251.82ZM125.27 255.39C124.32 255.39 123.54 255.07 122.94 254.45C122.34 253.82 122.05 252.99 122.05 251.93L122.05 251.72C122.05 251.02 122.18 250.4 122.44 249.86C122.71 249.3 123.08 248.87 123.56 248.56C124.04 248.25 124.56 248.09 125.12 248.09C126.04 248.09 126.75 248.39 127.25 249C127.76 249.6 128.02 250.47 128.02 251.59L128.02 252.09L123.25 252.09C123.26 252.78 123.46 253.33 123.84 253.76C124.24 254.19 124.73 254.4 125.33 254.4C125.76 254.4 126.11 254.32 126.41 254.15C126.71 253.98 126.97 253.75 127.19 253.47L127.92 254.03C127.34 254.93 126.45 255.39 125.27 255.39ZM125.12 249.07C124.64 249.07 124.22 249.25 123.89 249.61C123.57 249.96 123.36 250.45 123.28 251.09L126.81 251.09L126.81 251.01C126.78 250.4 126.61 249.92 126.31 249.59C126.02 249.25 125.62 249.07 125.12 249.07ZM131.65 253.62L133.4 248.22L134.62 248.22L132.1 255.26L131.18 255.26L128.63 248.22L129.85 248.22L131.65 253.62ZM137.09 255.26L135.89 255.26L135.89 248.22L137.09 248.22L137.09 255.26ZM135.79 246.36C135.79 246.16 135.85 245.99 135.96 245.86C136.09 245.72 136.27 245.65 136.49 245.65C136.73 245.65 136.91 245.72 137.03 245.86C137.15 245.99 137.21 246.16 137.21 246.36C137.21 246.55 137.15 246.72 137.03 246.86C136.91 246.98 136.73 247.04 136.49 247.04C136.27 247.04 136.09 246.98 135.96 246.86C135.85 246.72 135.79 246.55 135.79 246.36ZM141.84 254.4C142.27 254.4 142.64 254.27 142.96 254.01C143.29 253.75 143.46 253.43 143.49 253.04L144.64 253.04C144.61 253.45 144.47 253.83 144.21 254.2C143.96 254.56 143.62 254.86 143.2 255.07C142.77 255.28 142.32 255.39 141.84 255.39C140.88 255.39 140.11 255.07 139.54 254.43C138.98 253.79 138.7 252.91 138.7 251.81L138.7 251.61C138.7 250.92 138.82 250.31 139.07 249.78C139.33 249.25 139.7 248.83 140.17 248.54C140.64 248.24 141.19 248.09 141.84 248.09C142.62 248.09 143.27 248.33 143.79 248.81C144.32 249.28 144.6 249.89 144.64 250.64L143.49 250.64C143.46 250.19 143.29 249.82 142.98 249.53C142.67 249.23 142.29 249.07 141.84 249.07C141.22 249.07 140.74 249.3 140.4 249.75C140.07 250.18 139.9 250.82 139.9 251.65L139.9 251.87C139.9 252.68 140.07 253.31 140.4 253.75C140.74 254.18 141.22 254.4 141.84 254.4ZM146.58 254.45C145.99 253.82 145.69 252.99 145.69 251.93L145.69 251.72C145.69 251.02 145.82 250.4 146.08 249.86C146.35 249.3 146.73 248.87 147.21 248.56C147.68 248.25 148.21 248.09 148.77 248.09C149.68 248.09 150.39 248.39 150.89 249C151.4 249.6 151.66 250.47 151.66 251.59L151.66 252.09L146.89 252.09C146.9 252.78 147.1 253.33 147.49 253.76C147.88 254.19 148.38 254.4 148.97 254.4C149.4 254.4 149.76 254.32 150.05 254.15C150.35 253.98 150.61 253.75 150.83 253.47L151.56 254.03C150.98 254.93 150.1 255.39 148.91 255.39C147.96 255.39 147.18 255.07 146.58 254.45ZM147.53 249.61C147.21 249.96 147.01 250.45 146.92 251.09L150.46 251.09L150.46 251.01C150.42 250.4 150.26 249.92 149.96 249.59C149.66 249.25 149.27 249.07 148.77 249.07C148.28 249.07 147.87 249.25 147.53 249.61Z" />
		</g>
	</g>
</svg>